<svg width="76" height="50" viewBox="0 0 76 50" fill="none" xmlns="http://www.w3.org/2000/svg">
<path d="M54.21 20.84L72.19 18.96L68.17 7.84003H54.21V20.84Z" fill="black"/>
<path d="M75.38 37.87C75.32 34.3 75.56 29.15 74.29 28.12C74.04 27.92 73.69 27.57 73.28 27.14C73.48 26.17 73.46 24.59 73.2 22.83C73.17 22.79 73.14 22.75 73.1 22.71C73.13 22.75 73.16 22.8 73.2 22.83C73.14 22.38 73.06 21.93 72.96 21.46C72.93 21.32 72.89 21.15 72.85 20.98C72.7 20.41 72.48 19.67 72.21 18.85C72.21 18.89 72.2 18.93 72.2 18.97L68.58 19.31C68.52 15.89 68.59 9.31999 68.73 8.75999C68.91 8.02999 69.52 7.30999 68.73 7.12999C68.52 7.07999 66.65 6.95999 63.88 6.82999C63.9 6.58999 63.93 6.26999 63.93 6.01999L67.17 1.17999C67.23 1.08999 67.21 0.959992 67.12 0.899992C67.03 0.839992 66.9 0.85999 66.84 0.95999L63.75 5.58999C63.72 5.60999 63.69 5.63999 63.65 5.67999C63.32 6.04999 62.53 6.51999 62.09 6.75999C54.44 6.46999 42.28 6.30999 37.19 7.48999L38.28 8.02999C38.28 8.02999 35.98 6.87999 18.3 18.69C18.3 18.69 13.94 18.21 12.25 18.99C10.56 19.78 4.26001 23.83 4.26001 23.83C4.26001 23.83 2.69001 25.28 2.69001 27.22C2.69001 27.22 2.75001 27.43 2.87001 27.72H2.86L2.88 27.75C2.95 27.93 3.04 28.15 3.15 28.37C2.77 28.58 1.68 29.21 1.53 29.75C1.35 30.42 0.32 32.72 0.38 34.05C0.44 35.38 0.25 38.59 0.38 39.92C0.5 41.21 0.619999 43.36 1.84 43.32C1.84 43.32 2.79 43.43 3.36 43.35C4.29 46.99 7.59 49.69 11.52 49.69C15.33 49.69 18.54 47.16 19.58 43.69C19.82 43.49 20.18 43.19 20.46 43.01C20.71 42.86 21.03 42.86 21.27 42.89C21.29 43.63 21.26 44.09 21.26 44.09L55.1 43.06C55.1 43.06 55.1 42.66 55.16 42.02C55.37 42.06 55.52 42.1 55.55 42.14C55.64 42.25 56.31 43.32 57.32 44.04C58.43 47.39 61.59 49.81 65.31 49.81C69.96 49.81 73.73 46.04 73.73 41.39C73.73 41.33 73.73 41.27 73.73 41.21C74.04 41.13 74.3 41.07 74.36 41.04C74.76 40.93 75.42 40.35 75.38 37.87ZM58.3 17.84L22.02 21.46C22.12 20.7 22.28 20.13 22.51 19.84L22.41 19.76C22.23 19.99 22.1 20.37 22 20.88C22.47 16.09 32.81 11.89 36.76 10.14C40.88 8.31999 52.2 8.25999 52.2 8.25999C52.2 8.25999 57.16 8.19999 59.1 9.40999C60.64 10.37 59.27 15.13 58.64 17.04" fill="white"/>
</svg>
