<svg width="118" height="39" viewBox="0 0 118 39" fill="none" xmlns="http://www.w3.org/2000/svg">
<path d="M66.42 14.36L97.47 13.78C97.47 13.78 95.34 1.47 75.39 1.53C56.99 1.59 62.42 1.13 62.42 1.13L67.82 2.23001L66.42 14.36Z" fill="black"/>
<path d="M115.35 20.39C115.35 20.03 114.86 17.99 114.8 17.77C114.82 17.2 114.57 16.6 114.23 15.76C113.76 14.58 113.76 13.48 113.48 12.34C113.38 11.91 113.07 11.71 112.73 11.64C111.91 11.06 106.24 10.53 104.93 10.38C103.47 10.22 99.28 7.71999 93.77 5.01999C88.26 2.31999 81.29 0.25 68.01 0.25C54.73 0.25 51.08 2.32999 51.08 2.32999H52.67C42.17 7.54999 36.22 11.6 36.22 11.6C35.76 11.74 34.9 11.9 34.05 11.87C34.11 11.48 34.76 11.25 34.88 11.11C35.02 10.94 32.88 11.28 32.27 11.49C32.02 11.57 31.72 11.72 31.46 11.85C15.68 13.45 10 15.14 10 15.14V15.17C10 15.17 6.5 15.7 4.53 17.39C2.96 18.74 2.12 21.09 1.9 22.24C1.82 22.24 1.78 22.23 1.78 22.23C0.340001 22.89 0.0799995 24.05 0.129999 24.82C0.189999 25.59 0.760003 29.28 0.790003 29.78C0.820003 30.28 0.0500031 30.22 0.290003 31.13C0.540003 32.04 2.71 33.11 2.71 33.11L6.29 33.45L7.01 33.52C7.01 33.52 7.52 32.22 9.27 32.04C10.23 35.78 13.63 38.54 17.67 38.54C21.11 38.54 24.08 36.35 25.49 33.62C25.49 33.62 27.5 34.2 29.4 34.1C29.42 34.15 29.43 34.18 29.43 34.18C29.47 34.17 29.57 34.16 29.68 34.15C33.38 33.82 75.75 33.73 82.9 33.71C83.55 33.71 83.91 33.71 83.91 33.71C83.91 33.71 84.87 33.38 85.94 33.15C87.23 36.32 90.34 38.55 93.97 38.55C97.86 38.55 101.15 35.99 102.25 32.47L103.64 32.23C103.64 32.23 103.96 32.2 104.46 32.16C106.43 31.99 111.31 31.44 111.99 31.46C112.56 31.48 112.91 30.82 113.08 30.82H116.28C116.28 30.82 117.21 31.01 117.31 29.88C117.41 28.75 116.82 28.82 116.82 28.82H116.52C116.78 28.02 116.32 27.87 116.32 27.87C117.37 25.78 117.28 24.45 117.42 22.49C117.58 20.54 115.35 20.39 115.35 20.39ZM64.46 12.12L38.67 13.29C41.37 11.41 51.49 4.69001 54.5 3.57001C56.89 2.68001 62.63 2.36001 66.41 2.26001L64.46 12.12ZM68.81 11.94L69.51 2.23001C69.69 2.23001 69.83 2.23999 69.91 2.23999C70.78 2.27999 77.85 2.49 83.66 3.78L85.14 11.33L68.81 11.94ZM90.75 11.12L85.84 11.3L84.08 3.87C85.86 4.29 87.51 4.81 88.78 5.47C88.79 5.48 92.35 6.39 90.75 11.12Z" fill="white"/>
</svg>
