<svg width="129" height="41" viewBox="0 0 129 41" fill="none" xmlns="http://www.w3.org/2000/svg">
<path d="M68.41 17.0399L117.59 14.9099L123.37 12.02C123.37 12.02 115.04 5.53992 110.29 4.72992C105.54 3.92992 70.87 2.44995 70.87 2.44995L59.59 3.91992L72.22 3.56995L71.42 7.94995L68.41 17.0399Z" fill="black"/>
<path d="M127.22 24.25V21.49L125.34 17.97C125.34 17.97 127.22 16.34 127.1 15.08C127.04 14.56 125.12 13.16 122.88 11.69H120.78C120.78 11.69 111.73 7.50002 110.56 6.08002C110 5.40002 111 5.09998 112.2 4.97998H112.21L113.54 4.40997H112.79C112.79 4.40997 109.4 2.90002 102.99 2.27002L102.86 0.719971H101.89C101.89 0.719971 101.51 1.50998 100.76 1.59998C100.01 1.67998 99.46 2.09998 99.46 2.09998C99.46 2.09998 78.73 1.39001 74.46 1.39001C70.19 1.39001 62.81 1.22002 55.19 3.65002C54.82 3.77002 54.44 3.89998 54.06 4.03998L55.61 4.98999C55.61 4.98999 55.02 5.31997 53.69 5.90997C50.49 7.30997 41.12 13.2 39.62 14.2C38.91 14.67 37.26 14.26 35.69 13.69L35.51 13.78C35.51 13.78 20.93 13.69 12.3 16.29C3.68 18.88 0.949998 22.74 0.949998 22.74C0.949998 22.74 0.820002 31.54 1.83 32.16C2.84 32.79 0.949998 33.54 0.949998 33.54C0.949998 33.54 9 34.92 14.15 35.43C14.59 35.47 15.5 35.51 16.79 35.54C18.63 38.42 21.85 40.33 25.53 40.33C29.15 40.33 32.34 38.47 34.19 35.65C56.83 35.66 90.3 35.43 90.3 35.43V34.3L91.23 34.25C92.86 37.83 96.47 40.33 100.66 40.33C105.25 40.33 109.14 37.33 110.5 33.2L111.02 33.17V33.67L122.58 32.16L125.22 32.03L126.85 31.02L128.73 30.77V24.11L127.22 24.25ZM50.73 13.36C50.73 13.36 51.32 9.93002 48.3 11.02C45.28 12.11 45.79 14.2 45.79 14.2H42.77C42.77 14.2 48.3 9.93002 55.08 6.58002C58.29 5.00002 63.8 4.42998 69.84 4.28998L66.27 13.62L50.76 14.2L50.73 13.36ZM73.41 13.35L75.24 4.26001C79.49 4.31001 83.75 4.48003 87.45 4.59003L90.36 8.91998V12.71L73.41 13.35ZM95.4 12.53L91.59 4.72998C100.78 5.21998 104.62 7.47998 106.19 8.41998C107.86 9.42998 111.05 11.94 111.05 11.94L95.4 12.53Z" fill="white"/>
</svg>
