<svg width="109" height="35" viewBox="0 0 109 35" fill="none" xmlns="http://www.w3.org/2000/svg">
<path d="M66.29 11.19L85.22 10.76C85.22 10.76 82.81 3.25999 77.86 2.59999C75.79 2.31999 71.37 1.75999 66.29 1.45999V11.19Z" fill="black"/>
<path d="M108.47 23.57C108.36 22.76 108.1 22.68 108.1 22.68L108.25 18.98C108.25 18.98 106.44 17.76 106.36 17.39C106.29 17.02 105.47 14.51 105.47 14.51C105.71 13.69 106.05 12.11 106.03 11.63C106.01 11.26 105.65 10.6 105.35 10.11C105.54 9.84999 106.11 9.03998 105.77 8.66998C105.37 8.22998 104.86 9.51999 94.1 7.96999C94.07 7.56999 93.26 7.39999 91.81 7.35999C89.79 6.79999 85.74 6.87998 82.08 7.00998C82.26 6.38998 82.31 5.43999 81.01 5.26999C79.69 5.09999 78.25 6.32998 77.43 7.16998C76.74 7.17998 76.15 7.17999 75.69 7.15999C73.37 7.03999 69.39 7.12998 66.88 7.27998C66.93 6.56998 66.95 5.89999 66.86 5.54999C66.61 4.60999 66.08 3.76999 64.85 3.76999C64.85 3.76999 62.9 4.81998 63.02 6.67998C63.09 7.77998 63.3 8.47999 63.46 8.87999C57.01 9.07999 50.96 9.26998 46.05 9.42998L44.61 7.04999C44.59 7.01999 44.56 6.98999 44.54 6.95999C47.55 5.19999 50.87 3.49999 51.2 3.29999C51.79 2.92999 51.42 2.07998 49.91 1.11998C49.37 0.76998 48.94 0.679982 48.61 0.699982C48.42 0.539982 48.21 0.419983 48.21 0.419983C43.75 1.84998 37.28 6.31999 34 8.71999C32.69 8.03999 30.17 9.28999 29.62 9.20999C29.39 9.17999 29.11 9.28999 28.86 9.43999C28.12 9.29999 27.59 9.20999 27.59 9.20999C27.59 9.20999 7.70001 11.21 3.41001 16.16C3.41001 16.16 1.82 17.71 1.67 22.15C1.67 22.15 1.08 22.78 1.34 22.85C1.6 22.92 1.71001 23.74 1.82001 24.14C1.93001 24.55 1.82001 25.91 1.82001 25.91C1.82001 25.91 0.560006 27.54 1.08001 27.98C1.60001 28.42 4.44001 29.35 11.02 29.53C11.02 29.53 11.76 29.51 12.41 29.37C13.63 32.59 16.73 34.88 20.38 34.88C23.83 34.88 26.79 32.83 28.13 29.89C28.88 29.84 29.66 29.77 30.16 29.68L77.53 29.42C77.53 29.42 78.84 30.26 79.74 30.69C81.22 33.2 83.95 34.88 87.08 34.88C91.24 34.88 94.69 31.9 95.44 27.97C95.77 28.01 96.31 28.1 96.61 28.29C96.6 28.7 96.57 28.95 96.57 28.95L103.7 27.71H106.75C106.75 27.71 107.41 26.86 107.38 26.35C107.37 26.26 107.18 26.2 106.87 26.17C107.3 25.71 107.7 25.11 108.04 24.34C107.99 24.31 108.58 24.39 108.47 23.57ZM43.7 7.55998L44.84 9.44998C43.74 9.47998 42.71 9.51999 41.76 9.54999C41.91 9.29999 42.03 8.95998 42.02 8.52998C42.02 8.50998 42.02 8.48998 42.02 8.47998C42.52 8.14998 43.08 7.79999 43.66 7.45999C43.66 7.48999 43.68 7.51998 43.7 7.55998Z" fill="white"/>
</svg>
