<svg width="120" height="42" viewBox="0 0 120 42" fill="none" xmlns="http://www.w3.org/2000/svg">
<path d="M73.03 17.74L115.82 13.79C115.82 13.79 108.1 3.07999 99.67 3.07999C91.24 3.07999 59.84 2.07999 59.84 2.07999L75.51 3.32999V4.85999L73.03 17.74Z" fill="black"/>
<path d="M119.24 22.87C119.44 21.77 117.86 21.24 117.86 21.24C117.86 21.24 117.92 21.02 117.93 20.65C117.97 20.62 118 20.59 118.03 20.55C118.07 20.5 118.07 20.42 118.02 20.38C118 20.36 117.97 20.35 117.94 20.35C117.94 20.11 117.92 19.82 117.86 19.5C117.68 18.45 117.25 15.16 116.76 14.24C116.28 13.32 115.91 13.22 115.91 13.22L115.82 13.78C114.87 13.29 111.01 12.76 110.27 12.63C109.53 12.5 108.52 11.74 106.23 9.30999C103.93 6.88999 102.96 4.20001 102.96 4.20001L104.49 3.02999C104.82 2.31999 100.79 2.05999 100.79 2.05999C99.39 1.90999 81.62 0.400001 71.23 0.320001C60.84 0.240001 52.78 2.69 52.34 2.98C51.91 3.26 52.16 4.1 52.16 4.1C49.97 4.48 36.03 14.08 35.16 14.31C34.88 14.39 34.45 14.45 33.97 14.48C34.5 13.87 34.71 12.96 34.93 12.73C35.21 12.42 34.62 12.35 34.14 12.24C33.66 12.14 32.61 13.31 32.61 13.31L32.24 13.39C31.95 13.39 26.95 13.43 14.92 16.33C2.51 19.32 1.19 22.53 1.01 23.22C0.830002 23.91 0.580001 24.98 0.580001 24.98C0.400001 25.9 0.499999 28.89 0.459999 29.22C0.409999 29.55 0.480003 29.81 0.480003 29.81C0.470003 29.93 0.459999 30.05 0.459999 30.16C0.839999 30.2 1.37 30.24 1.77 30.24C2.09 30.24 2.62 30.3 3.1 30.46C2.62 30.3 2.09 30.24 1.77 30.24C1.38 30.24 0.849999 30.2 0.459999 30.16C0.459999 31.44 1.28 32.29 1.32 32.71C1.36 33.1 0.999996 33.25 0.769996 33.56C0.729996 33.61 0.690003 33.67 0.660003 33.73C0.460003 34.16 1.05 34.38 1.05 34.38C3.04 35.75 13.03 36.94 13.03 36.94C13.03 36.94 13.63 37.09 14.38 36.53C15.72 39.63 18.8 41.79 22.39 41.79C25.69 41.79 28.56 39.96 30.04 37.26C30.78 37.26 32.24 37.26 33.46 37.26H33.88C33.99 37.26 34.1 37.26 34.21 37.26C34.22 37.26 34.24 37.26 34.25 37.26L86.24 36.95C86.24 36.95 87.35 36.71 88.43 36.62C89.79 39.67 92.85 41.8 96.4 41.8C100.09 41.8 103.24 39.51 104.52 36.28C105.16 36.37 106.48 36.51 107.44 36.33V36.34H107.58C108.96 36.34 111.69 35.52 112.61 35.36C113.53 35.21 116.54 33.54 117.61 32.93C118.68 32.32 118.4 28.79 118.4 28.33C118.4 27.87 117.86 26.26 117.97 25.62C118.07 24.99 119.04 23.97 119.24 22.87ZM0.940002 33.73C1.26 33.95 1.69 33.96 2.35 33.86C1.68 33.96 1.25 33.95 0.940002 33.73ZM70.69 13.91L44.38 14.86V14.83C44.83 14.81 45.24 14.76 45.49 14.72C46.21 14.59 46.11 13.15 46.1 12.75C46.08 12.42 46.08 11.08 44.79 11.34L44.85 10.78C48.87 7.60999 50.57 7.00001 55.3 4.89001C60.03 2.78001 73.96 3.42999 73.96 3.42999L70.69 13.91ZM96.21 12.03C95.93 12.28 88.13 12.43 88.13 12.43C88.13 12.43 77.21 12.89 76.86 12.68C76.51 12.48 76.86 11.44 76.86 11.44L78.86 3.94C79.72 3.79 86.96 4.35 90.79 5.16C94.61 5.97 96.46 7.96999 97.15 9.08999C97.84 10.21 96.49 11.78 96.21 12.03Z" fill="white"/>
</svg>
