<svg width="112" height="34" viewBox="0 0 112 34" fill="none" xmlns="http://www.w3.org/2000/svg">
<path d="M68.29 15.58L94.87 14.1L100.2 8.55998C100.2 8.55998 90.68 3.57999 82.9 2.71999C75.12 1.85999 54.04 1.98999 54.04 1.98999L67.04 1.97998L69.92 10.84L68.29 15.58Z" fill="black"/>
<path d="M110.43 24.47C111.8 24.24 111.68 20.82 111.71 20C111.74 19.17 110.37 18.92 109.91 18.6C109.45 18.29 109.11 15.98 109.11 15.98C109.11 15.98 109.1 15.98 109.08 15.98C109.55 14.78 109.47 13.9 109.25 13.3C109.33 12.65 108.47 11.32 108.28 11.17C108.08 11 108.19 10.17 108.14 9.71998C108.08 9.25998 104.32 9.40998 103.58 9.34998C102.84 9.28998 100.19 8.57998 100.19 8.57998C98.99 9.08998 96.8 8.63998 96.8 8.63998C96.8 8.63998 81.84 3.67999 81.64 3.56999C81.44 3.45999 82.89 2.73998 82.89 2.73998C82.89 2.73998 81.72 2.43997 79.5 2.03997C79.61 1.58997 80.06 0.889976 80.06 0.669976C80.06 0.409976 79.75 0.479985 79.37 0.569985C79.07 0.639985 78.06 1.39997 77.62 1.72997C75.08 1.33997 71.66 0.919972 67.47 0.649972C57.64 0.0199718 49.86 1.35997 49.63 1.64997C49.4 1.93997 50.31 2.55998 50.31 2.55998C47.03 2.75998 33.64 10.85 33.64 10.85C33.27 10.86 32.8 10.79 32.33 10.69C32.29 10.51 32.19 10.29 31.96 10.1C31.42 9.64998 29.96 10.09 29.96 10.09C20.71 10.09 10.75 12.3 6.57 13.86C2.35 15.43 2.41 17.71 1.58 19.57C0.750002 21.42 1.1 27.41 1.1 27.41C0.559999 27.67 0.620003 28.07 0.620003 28.07C0.760003 29.92 11.03 30.66 11.03 30.66C11.68 30.22 13.64 30.08 14.04 30.06C15.5 31.78 17.68 32.87 20.11 32.87C22.69 32.87 24.99 31.45 26.44 29.55C27.33 29.52 28.86 29.38 28.86 29.38H77.95L81.09 29.63C82.46 32.03 85.04 33.74 88.01 33.74C90.89 33.74 93.41 32.26 94.81 29.97L97.37 29.83C97.37 29.83 101.19 29.58 103.35 29.07C103.39 29.06 103.44 29.05 103.48 29.04C104.57 29.01 107.99 28.91 108.6 28.91C109.32 28.91 109.53 27.85 109.53 27.85C110.18 27.77 110.82 26.56 110.82 26.17C110.82 25.78 110.23 25.44 110.18 25.21C110.15 25.08 110.24 24.75 110.32 24.49C110.4 24.46 110.43 24.47 110.43 24.47ZM40.24 9.52998C40.24 9.52998 39.36 9.28997 39.29 9.67997C39.25 9.91997 39.4 10.25 39.63 10.49C39.76 10.63 39.91 10.74 40.07 10.79L37.24 10.85C37.89 10.33 39.02 9.46998 40.62 8.49998C40.42 8.82998 40.33 9.17998 40.24 9.52998ZM66.05 10.2H65.99V10.25C65.87 10.26 65.75 10.26 65.64 10.26L44.06 10.7C44.41 10.5 44.83 10.09 44.92 9.50997C44.95 9.31997 44.95 9.09997 44.89 8.86997C44.66 7.96997 44.17 7.07998 43.13 7.07998C44.3 6.47998 45.62 5.87998 47.09 5.30998C53.96 2.64998 58.5 2.41998 63.86 2.71998C64.96 2.77998 66.05 2.83997 67.13 2.89997L68.44 10.14C68.39 10.14 68.34 10.14 68.29 10.15C66.97 10.18 66.08 10.2 66.05 10.2ZM84.62 9.20998C84.62 9.20998 84.61 9.21998 84.6 9.21998H84.59C84.58 9.21998 84.57 9.22997 84.56 9.22997C84.55 9.22997 84.55 9.22997 84.54 9.22997C84.53 9.22997 84.52 9.22998 84.5 9.23998C84.49 9.23998 84.48 9.23998 84.48 9.23998C84.46 9.23998 84.45 9.24998 84.43 9.24998C84.42 9.24998 84.41 9.25997 84.4 9.25997C84.37 9.25997 84.34 9.27998 84.31 9.27998C84.28 9.27998 84.24 9.28997 84.2 9.28997C84.19 9.28997 84.17 9.28997 84.16 9.28997C84.13 9.28997 84.1 9.28998 84.07 9.29998C84.05 9.29998 84.03 9.29998 84.02 9.29998C83.99 9.29998 83.96 9.30998 83.93 9.30998C83.91 9.30998 83.89 9.30999 83.87 9.31999C83.84 9.31999 83.81 9.32998 83.77 9.32998C83.75 9.32998 83.73 9.32997 83.71 9.33997C83.66 9.33997 83.61 9.34998 83.56 9.34998C83.55 9.34998 83.54 9.34998 83.53 9.34998C83.47 9.34998 83.41 9.35998 83.35 9.35998C83.33 9.35998 83.3 9.35997 83.27 9.36997C83.23 9.36997 83.19 9.37998 83.14 9.37998C83.11 9.37998 83.08 9.37998 83.05 9.38998C83.01 9.38998 82.96 9.39997 82.92 9.39997C82.89 9.39997 82.86 9.39998 82.83 9.40998C82.78 9.40998 82.74 9.41998 82.69 9.41998C82.66 9.41998 82.63 9.41997 82.59 9.42997C82.54 9.42997 82.48 9.43998 82.43 9.43998C82.38 9.43998 82.34 9.44998 82.29 9.44998C82.23 9.44998 82.17 9.45998 82.1 9.45998C82.06 9.45998 82.03 9.45998 81.99 9.46998C81.94 9.46998 81.89 9.47997 81.84 9.47997C81.8 9.47997 81.75 9.48998 81.71 9.48998C81.66 9.48998 81.61 9.49998 81.56 9.49998C81.52 9.49998 81.47 9.50997 81.43 9.50997C81.38 9.50997 81.33 9.51998 81.28 9.51998C81.23 9.51998 81.18 9.52998 81.13 9.52998C81.09 9.52998 81.05 9.52997 81.01 9.53997C80.9 9.54997 80.78 9.54998 80.67 9.55998C80.63 9.55998 80.6 9.55999 80.56 9.56999C80.5 9.56999 80.44 9.57998 80.38 9.57998C80.34 9.57998 80.29 9.58997 80.25 9.58997C80.19 9.58997 80.13 9.59998 80.06 9.59998C80.02 9.59998 79.98 9.59998 79.93 9.60998C79.87 9.60998 79.81 9.61997 79.74 9.61997C79.69 9.61997 79.65 9.62998 79.6 9.62998C79.54 9.62998 79.47 9.63998 79.41 9.63998C79.37 9.63998 79.32 9.63997 79.27 9.64997C79.03 9.65997 78.78 9.67998 78.53 9.68998C78.5 9.68998 78.47 9.68998 78.44 9.69998C78.36 9.69998 78.28 9.70998 78.21 9.70998C78.17 9.70998 78.14 9.70998 78.1 9.71998C78.02 9.71998 77.94 9.72997 77.87 9.72997C77.84 9.72997 77.81 9.72997 77.78 9.72997C77.37 9.74997 76.96 9.76997 76.54 9.78997C76.53 9.78997 76.53 9.78997 76.52 9.78997C76.42 9.79997 76.32 9.79998 76.22 9.80998C76.2 9.80998 76.18 9.80998 76.16 9.80998C76.07 9.80998 75.97 9.81999 75.88 9.81999C75.86 9.81999 75.83 9.81999 75.81 9.81999C75.27 9.84999 74.73 9.86997 74.19 9.89997C74.18 9.89997 74.16 9.58998 74.15 9.59998C74.05 9.60998 73.94 9.30998 73.84 9.30998C72.34 9.30998 70.88 9.75999 69.57 9.81999L68.27 2.84998C71.97 3.09998 75.34 3.58998 77.77 4.77998C81.16 6.39998 84.88 8.94998 84.62 9.20998ZM108.58 12.28L108.56 12.27C108.58 12.27 108.58 12.27 108.58 12.27L108.59 12.3C108.59 12.29 108.58 12.28 108.58 12.28Z" fill="white"/>
</svg>
