<svg width="312" height="103" viewBox="0 0 312 103" fill="none" xmlns="http://www.w3.org/2000/svg">
<path d="M0.001904 86.8666C0.001904 86.8666 27.8367 99.3447 67.6706 101.744C107.504 104.144 176.134 101.744 176.134 101.744L207.808 94.8391C207.808 94.8391 293.235 65.7498 303.793 59.5108C314.353 53.2717 311.472 47.9925 308.113 42.7133C304.754 37.4342 292.756 15.3576 267.319 11.5182C241.884 7.67875 129.58 3.35941 129.58 3.35941L67.1897 -7.1661e-05C67.1897 -7.1661e-05 11.4904 61.4305 0 86.8666" fill="url(#paint0_linear_1_175)"/>
<path d="M86.1871 73.2368L81.1997 83.5955C84.349 83.7548 87.744 83.895 91.3703 84.0044L96.1571 73.7196C92.6047 73.5881 89.2807 73.4239 86.1871 73.2368" fill="white"/>
<path d="M78.086 83.4208L83.0868 73.0333C79.0122 72.7539 75.3782 72.442 72.2078 72.1233L67.0189 82.6308C70.2363 82.9082 73.9269 83.1808 78.086 83.4208" fill="white"/>
<path d="M108.955 74.0238C105.57 73.9882 102.354 73.9201 99.2824 73.827L94.5052 84.0916C97.6132 84.1675 100.88 84.2203 104.309 84.2443L108.955 74.0238Z" fill="white"/>
<path d="M69.1497 71.8065C60.6157 70.86 56.1629 69.9674 56.0641 69.9463L50.9644 80.7456C51.3723 80.8272 55.7617 81.5739 63.9396 82.3562L69.1497 71.8065Z" fill="white"/>
<path d="M124.543 73.9469L120.055 84.1444C123.786 84.0743 127.673 83.9668 131.723 83.819L134.833 73.6638C131.285 73.7934 127.862 73.8845 124.543 73.9469Z" fill="white"/>
<path d="M112.103 74.043L107.461 84.2558C107.821 84.2558 108.173 84.2587 108.535 84.2587C111.218 84.2587 114.003 84.2385 116.884 84.1992L121.371 74.0007C118.168 74.043 115.082 74.0554 112.103 74.043" fill="white"/>
<path d="M203.932 50.9584L201.79 57.6361C203.889 57.5104 205.999 57.3827 208.115 57.2541L210.179 50.6042C208.092 50.7242 206.008 50.8423 203.932 50.9584" fill="#F68712"/>
<path d="M238.717 48.9045C236.731 49.0283 234.724 49.1512 232.704 49.275L230.763 55.8212C232.562 55.7031 234.351 55.585 236.129 55.467L238.717 48.9045Z" fill="#F68712"/>
<path d="M200.861 51.1313C198.393 51.2676 195.94 51.401 193.51 51.5315L191.048 58.2649C193.577 58.12 196.134 57.9721 198.715 57.8205L200.861 51.1313Z" fill="#F68712"/>
<path d="M223.35 49.8355L220.971 56.4508C223.222 56.3068 225.469 56.1619 227.707 56.016L229.652 49.4554C227.563 49.5831 225.461 49.7088 223.35 49.8355" fill="#F68712"/>
<path d="M220.221 50.0274C217.903 50.1647 215.579 50.301 213.255 50.4354L211.196 57.0728C213.407 56.9345 215.622 56.7963 217.836 56.6562L220.221 50.0274Z" fill="#F68712"/>
<path d="M138.518 60.4227L141.132 53.6701C138.485 53.7114 135.876 53.7363 133.307 53.7488L130.571 60.4745C133.175 60.4716 135.827 60.4543 138.518 60.4227" fill="#F68712"/>
<path d="M291.883 51.5536C299.423 50.9988 304.009 50.6513 304.225 50.6341L300.125 44.8615C299.979 44.873 297.907 45.018 294.347 45.2627L291.883 51.5536Z" fill="#F68712"/>
<path d="M182.863 52.0912L180.384 58.8562C182.853 58.7257 185.365 58.5894 187.914 58.4473L190.381 51.7043C187.841 51.8368 185.334 51.9664 182.863 52.0912Z" fill="#F68712"/>
<path d="M145.199 53.5886C144.879 53.5953 144.563 53.6001 144.245 53.6068L141.625 60.3748C142.859 60.3556 144.097 60.3325 145.344 60.3056C146.947 60.2711 148.651 60.225 150.43 60.1713L152.366 53.3937C149.824 53.4744 147.423 53.5406 145.199 53.5886" fill="#F68712"/>
<path d="M259.632 47.5799L257.618 54.0061C259.558 53.8717 261.462 53.7383 263.327 53.6078L265.553 47.1959C263.63 47.3207 261.657 47.4484 259.632 47.5799" fill="#F68712"/>
<path d="M118.246 60.3555C121.25 60.416 124.326 60.4553 127.465 60.4688L130.197 53.7546C127.031 53.7565 123.934 53.7373 120.919 53.7018L118.246 60.3555Z" fill="#F68712"/>
<path d="M96.5727 53.0222L93.3562 59.3409C96.5573 59.5348 99.96 59.7153 103.531 59.8737L106.335 53.3831C102.911 53.2775 99.65 53.1556 96.5727 53.0222" fill="#F68712"/>
<path d="M90.228 59.146L93.4167 52.881C89.6684 52.7025 86.237 52.5125 83.1654 52.3253L79.7177 58.3666C82.8477 58.6258 86.3656 58.8926 90.228 59.146" fill="#F68712"/>
<path d="M117.833 53.6557C114.946 53.6097 112.15 53.5473 109.437 53.4753L106.615 60.0042C109.379 60.1136 112.237 60.2067 115.172 60.2806L117.833 53.6557Z" fill="#F68712"/>
<path d="M241.894 48.7028L239.312 55.25C241.522 55.1031 243.709 54.9553 245.871 54.8085L248.171 48.3083C246.107 48.4398 244.014 48.5704 241.894 48.7028" fill="#F68712"/>
<path d="M79.9672 52.12C71.4178 51.5547 66.3901 51.0584 66.2596 51.045L63.9243 56.806C64.0471 56.8185 68.7053 57.3992 76.5588 58.0951L79.9672 52.12Z" fill="#F68712"/>
<path d="M256.561 47.7718C254.837 47.8822 253.081 47.9945 251.299 48.1087L249.004 54.5925C250.875 54.4658 252.722 54.3391 254.541 54.2134L256.561 47.7718Z" fill="#F68712"/>
<path d="M274.558 46.6008C272.674 46.7256 270.708 46.8551 268.676 46.9886L266.455 53.385C268.336 53.2535 270.17 53.123 271.952 52.9963L274.558 46.6008Z" fill="#F68712"/>
<path d="M291.173 45.4778C289.659 45.5814 287.974 45.6966 286.136 45.8195L284.035 52.1238C285.672 52.0048 287.233 51.8915 288.704 51.783L291.173 45.4778Z" fill="#F68712"/>
<path d="M277.755 46.3896L275.155 52.7688C277.155 52.6258 279.08 52.4885 280.92 52.3551L283.026 46.0364C281.364 46.1477 279.605 46.2658 277.755 46.3896Z" fill="#F68712"/>
<path d="M166.124 52.8686C162.356 53.0299 158.758 53.172 155.389 53.2891L153.452 60.0695C157.752 59.9216 162.469 59.7268 167.494 59.4926L166.124 52.8686Z" fill="#F68712"/>
<path d="M172.132 52.6095L173.048 59.2334C174.434 59.1643 175.834 59.0952 177.256 59.0213L179.739 52.2476C177.149 52.3753 174.614 52.4962 172.132 52.6095" fill="#F68712"/>
<path d="M158.771 26.5495H88.5243L83.3056 32.3086H160.529L158.771 26.5495Z" fill="#ED1C24"/>
<path d="M286.729 30.5232C281.626 25.7844 271.629 26.4093 269.924 26.5533H165.29L166.555 32.3124H270.056L270.32 32.3009C272.65 32.0907 279.947 32.0801 282.814 34.7427C287.173 38.7895 291.72 43.6483 291.778 43.7078L299.887 43.6742C299.649 43.4227 291.228 34.6976 286.733 30.5232" fill="#ED1C24"/>
<g opacity="0.24">
<path d="M40.6517 76.1545L79.7234 22.0764C79.7234 22.0764 85.9702 15.3566 94.5061 14.7173C103.042 14.078 261.252 15.2749 273.49 19.1556" fill="url(#paint1_linear_1_175)"/>
</g>
<defs>
<linearGradient id="paint0_linear_1_175" x1="0.00191971" y1="51.4" x2="311.186" y2="51.4" gradientUnits="userSpaceOnUse">
<stop stop-color="#360304"/>
<stop offset="0.0038757" stop-color="#360304"/>
<stop offset="0.56201" stop-color="#260101"/>
<stop offset="1" stop-color="#470506"/>
</linearGradient>
<linearGradient id="paint1_linear_1_175" x1="155.172" y1="11.5277" x2="158.235" y2="69.9846" gradientUnits="userSpaceOnUse">
<stop stop-color="white"/>
<stop offset="0.0038757" stop-color="white"/>
<stop offset="1" stop-color="#0A0A0A"/>
</linearGradient>
</defs>
</svg>
