<svg width="129" height="43" viewBox="0 0 129 43" fill="none" xmlns="http://www.w3.org/2000/svg">
<path d="M71.44 15.68L109.69 12.16L107.98 8.15002L92.02 3.53003L75.96 2.63L71.44 15.68Z" fill="black"/>
<path d="M128.79 25.83C128.79 25.83 127.87 23.99 127.34 22.02C126.81 20.05 126.59 18.82 126.59 18.82C126.59 18.82 122.93 18.93 120.11 16.56C117.28 14.19 117.5 14.33 117.5 14.33C117.5 14.33 124.05 14.46 124.62 14.5C125.19 14.54 126.55 15.35 126.55 15.35C126.55 15.35 125.96 13.8 126.35 13.47C126.74 13.14 127.14 12.55 127.14 12.55C127.14 12.55 123.33 11.76 120.83 11.04C118.33 10.32 98.82 2.68997 84.89 2.03997C70.96 1.37997 57.29 2.82999 44.94 8.73999C32.59 14.65 31.67 15.44 31.67 15.44C31.67 15.44 16.82 17.15 14.32 18.07C11.82 18.99 1.18 23.98 0.779999 25.43C0.779999 25.43 1.39 28.85 1.39 29.72C1.39 30.6 0.779999 31.95 0.779999 31.95C0.779999 31.95 2.4 32.83 2.4 33.31C2.4 33.79 2.4 34.32 2.4 34.32C2.4 34.32 0.559997 35.24 0.949997 35.5C1.34 35.76 3.45 37.12 3.45 37.12C3.45 37.12 7.04 37.21 7.96 37.69C8.88 38.17 9.67 38.74 10.11 38.74C10.55 38.74 10.81 37.82 10.81 37.82L13.02 37.75C14.75 40.38 17.73 42.11 21.11 42.11C21.89 42.11 22.64 42.02 23.36 41.84C23.4 41.84 23.44 41.84 23.47 41.84C26.98 41.84 30.05 39.98 31.75 37.18L32.79 37.15V38.11L94.07 38.72V37.49L95.7 37.44C97.42 40.15 100.44 41.96 103.89 41.96C103.93 41.96 103.97 41.96 104 41.96C104.72 42.13 105.48 42.23 106.25 42.23C110.04 42.23 113.33 40.05 114.92 36.87L116.01 36.84C116.01 36.84 116.93 37.63 118.51 37.37C120.09 37.11 123.64 35.14 123.64 35.14C123.64 35.14 127.19 34.48 127.06 33.96C126.93 33.43 126.93 33.43 126.93 33.43L128.24 29.88L128.79 25.83ZM7.63 23.21L4.87 23.87C4.54 23.34 5.13 22.88 5.13 22.88C8.42 19.99 15.05 18.61 15.05 18.61L7.63 23.21ZM39.03 15.72C55.85 3.36997 73.59 3.48999 73.59 3.48999L70.17 13.88L39.03 15.72ZM98.04 12.04L89.24 12.83L73.6 13.75L76.71 3.5C89.06 3.37 98.79 5.95001 98.79 5.95001L98.04 12.04ZM105.69 10.02L100.19 11.25C100.19 11.25 99.75 11.25 99.75 10.92C99.75 10.59 100.38 7.70001 100.38 7.70001C100.38 7.70001 100.49 7.42 100.8 7.5C100.8 7.5 105.64 8.76997 105.97 9.09997C106.3 9.42997 105.69 10.02 105.69 10.02Z" fill="white"/>
<path d="M115.46 8.12C95.59 0.109996 79.45 0.810008 79.29 0.820008L79.25 0.0200204C79.41 0.0100204 95.73 -0.689994 115.76 7.38001L115.46 8.12Z" fill="black"/>
</svg>
