<svg width="115" height="45" viewBox="0 0 115 45" fill="none" xmlns="http://www.w3.org/2000/svg">
<path d="M60.33 17.75L109.52 15.83L103.98 2.32001L85.83 1.23999L58.86 1.56L60.82 2.52002L60.72 7.03003L60.33 17.75Z" fill="black"/>
<path d="M114.45 30.53C114.45 30.53 114.27 29.71 114.37 27.75C114.37 27.75 114.37 27.75 114.38 27.75C114.39 27.5 114.39 27.5699 114.4 27.4699C114.55 25.2099 113.84 24.78 113.84 24.78V21.42C113.99 21.41 114.17 21.3999 114.22 21.3499C114.35 21.2299 114.45 20.02 114.02 17.88C113.38 14.78 111.69 10.06 107.21 5.54996C106.99 5.22996 106.78 4.92998 106.58 4.63998C104.66 1.82998 103.4 2.03996 98.36 1.29996C93.32 0.559957 71.6 0.219971 71.6 0.219971C71.6 0.219971 66.7 0.379961 61.48 0.709961L61.49 0.639984L61.32 0.619965L61.31 0.719971C58.02 0.929971 54.63 1.19996 52.27 1.54996C51.26 1.69996 50.25 1.90995 49.25 2.16995H49.24C44.15 3.49995 39.42 6.03995 37.57 7.03995C35.35 8.24995 26.55 14.9 26.55 14.9C26.1 15.18 22.76 14.9 22.76 14.9C22.7 14.9 22.64 14.9099 22.59 14.9099C18.55 15.2799 10.57 18.8399 9.58 19.2899C5.33 20.3299 3.04999 24.55 3.03999 24.56C2.65999 25.01 2.07 27.12 2.07 27.12C2.07 27.12 1.22 27.53 0.749997 28.34C0.589997 28.62 0.470003 28.94 0.460003 29.32C0.430003 29.91 0.579991 30.42 0.759991 30.83C1.02999 31.44 1.39 31.8 1.39 31.8V33.4699C0.899996 34.0199 0.999997 34.74 0.999997 34.74C1.58 38.23 12.77 38.25 12.8 38.25C12.8 38.25 13.42 38.02 14.06 37.83C15.02 41.55 18.4 44.3 22.42 44.3C26.05 44.3 29.15 42.06 30.43 38.89C30.95 38.92 32.08 38.98 33.14 38.86L86.51 37.5999C86.51 37.5999 87.04 37.29 87.63 37.14C88.33 41.21 91.87 44.3 96.14 44.3C100.42 44.3 103.97 41.18 104.66 37.09C105.09 37.07 105.59 36.99 106.03 36.8C106.86 36.66 111.75 35.81 113.5 34.87C115.4 33.9 114.45 30.53 114.45 30.53ZM38.8 11.45L38.7 12.39C38.65 12.39 38.59 12.4 38.54 12.4C36.49 12.62 35.67 15.08 35.67 15.08L34.55 16.56L28.17 16.96C28.17 16.96 29.03 16.2 30.28 15.13C32.93 12.88 37.33 9.27998 39.11 8.63998L38.8 11.45ZM57.04 15.21L42.88 16C43.21 15.7 43.42 15.14 43.34 14.14C43.22 12.58 41.49 12.27 39.74 12.33L39.84 10.96L40.07 7.84995C43.48 5.26995 47.95 3.93998 51.67 3.25998C55.7 2.51998 58.86 2.53 58.86 2.53L57.04 15.21ZM62.8 14.96L63.42 2.51999C67.75 1.87999 82.09 2.29996 82.09 2.29996L83.94 14.25L62.8 14.96ZM105.76 12.74C105.24 13.38 103.4 13.53 103.4 13.53H88.27L86.51 2.43997C86.51 2.43997 100.39 3.36996 101.82 3.61996C103.25 3.86996 105.02 8.41995 105.56 9.47995C106.11 10.5399 106.28 12.1 105.76 12.74Z" fill="white"/>
</svg>
