<?xml version="1.0" encoding="UTF-8"?>
<!-- Created with Inkscape (http://www.inkscape.org/) -->
<svg width="210mm" height="130mm" version="1.1" viewBox="0 0 210 130" xmlns="http://www.w3.org/2000/svg" xmlns:xlink="http://www.w3.org/1999/xlink">
 <defs>
  <linearGradient id="linearGradient1010" x2="1" gradientTransform="matrix(4.1364 0 0 -4.1364 236.94 459.98)" gradientUnits="userSpaceOnUse">
   <stop stop-color="#37ab9c" offset="0"/>
   <stop stop-color="#172c4e" offset="1"/>
  </linearGradient>
  <clipPath id="clipPath1020">
   <path d="m0 0h283.46v595.28h-283.46z"/>
  </clipPath>
  <linearGradient id="linearGradient1042" x2="1" gradientTransform="matrix(13.544 0 0 -13.544 240.11 463.16)" gradientUnits="userSpaceOnUse">
   <stop stop-color="#37ab9c" offset="0"/>
   <stop stop-color="#172c4e" offset="1"/>
  </linearGradient>
  <linearGradient id="linearGradient1062" x2="1" gradientTransform="matrix(1.8166 0 0 -1.8166 250.39 464.14)" gradientUnits="userSpaceOnUse">
   <stop stop-color="#37ab9c" offset="0"/>
   <stop stop-color="#172c4e" offset="1"/>
  </linearGradient>
  <linearGradient id="linearGradient1082" x2="1" gradientTransform="matrix(2.6425 0 0 -2.6425 245.56 478.69)" gradientUnits="userSpaceOnUse">
   <stop stop-color="#37ab9c" offset="0"/>
   <stop stop-color="#172c4e" offset="1"/>
  </linearGradient>
  <linearGradient id="linearGradient1102" x2="1" gradientTransform="matrix(2.6425 0 0 -2.6425 245.56 456.41)" gradientUnits="userSpaceOnUse">
   <stop stop-color="#37ab9c" offset="0"/>
   <stop stop-color="#172c4e" offset="1"/>
  </linearGradient>
  <linearGradient id="linearGradient1122" x2="1" gradientTransform="matrix(4.1378 0 0 -4.1378 252.69 475.74)" gradientUnits="userSpaceOnUse">
   <stop stop-color="#37ab9c" offset="0"/>
   <stop stop-color="#172c4e" offset="1"/>
  </linearGradient>
  <linearGradient id="linearGradient1142" x2="1" gradientTransform="matrix(3.1596 0 0 -3.1596 253.23 475.74)" gradientUnits="userSpaceOnUse">
   <stop stop-color="#37ab9c" offset="0"/>
   <stop stop-color="#172c4e" offset="1"/>
  </linearGradient>
  <linearGradient id="linearGradient1182" x2="1" gradientTransform="matrix(1.6694 0 0 -1.6694 237.43 460.11)" gradientUnits="userSpaceOnUse">
   <stop stop-color="#37ab9c" offset="0"/>
   <stop stop-color="#172c4e" offset="1"/>
  </linearGradient>
  <linearGradient id="linearGradient1202" x2="1" gradientTransform="matrix(4.7561 0 0 -4.7561 255.65 468.61)" gradientUnits="userSpaceOnUse">
   <stop stop-color="#37ab9c" offset="0"/>
   <stop stop-color="#172c4e" offset="1"/>
  </linearGradient>
  <linearGradient id="linearGradient1222" x2="1" gradientTransform="matrix(4.756 0 0 -4.756 233.37 468.61)" gradientUnits="userSpaceOnUse">
   <stop stop-color="#37ab9c" offset="0"/>
   <stop stop-color="#172c4e" offset="1"/>
  </linearGradient>
  <linearGradient id="linearGradient1242" x2="1" gradientTransform="matrix(.038574 0 0 -.038574 238 470.39)" gradientUnits="userSpaceOnUse">
   <stop stop-color="#37ab9c" offset="0"/>
   <stop stop-color="#172c4e" offset="1"/>
  </linearGradient>
  <linearGradient id="linearGradient1262" x2="1" gradientTransform="matrix(4.138 0 0 -4.138 252.69 459.98)" gradientUnits="userSpaceOnUse">
   <stop stop-color="#37ab9c" offset="0"/>
   <stop stop-color="#172c4e" offset="1"/>
  </linearGradient>
  <linearGradient id="linearGradient1282" x2="1" gradientTransform="matrix(4.1364 0 0 -4.1364 236.94 475.74)" gradientUnits="userSpaceOnUse">
   <stop stop-color="#37ab9c" offset="0"/>
   <stop stop-color="#172c4e" offset="1"/>
  </linearGradient>
  <linearGradient id="linearGradient1302" x2="1" gradientTransform="matrix(.62968 0 0 -.62968 237.95 479.84)" gradientUnits="userSpaceOnUse">
   <stop stop-color="#37ab9c" offset="0"/>
   <stop stop-color="#172c4e" offset="1"/>
  </linearGradient>
  <linearGradient id="linearGradient2146" x2="1" gradientTransform="matrix(4.1364 0 0 -4.1364 236.94 459.98)" gradientUnits="userSpaceOnUse" xlink:href="#linearGradient1010"/>
 </defs>
 <g transform="matrix(2.9122 0 0 -2.9122 -553.56 1418.8)">
  <path d="m239.14 463.97c-0.038-0.021-0.076-0.044-0.113-0.067-0.073-0.049-0.142-0.105-0.206-0.17l-1.496-1.494c-0.515-0.517-0.515-1.353 0-1.868 0.032-0.032 0.065-0.062 0.1-0.09 0.035-0.029 0.071-0.055 0.107-0.08 0.018-0.012 0.037-0.023 0.056-0.035 0.038-0.022 0.076-0.042 0.115-0.06 0.176-0.082 0.367-0.123 0.557-0.123 0.191 0 0.38 0.041 0.557 0.123 0.038 0.018 0.077 0.038 0.115 0.06 0.019 0.012 0.037 0.024 0.056 0.035 0.037 0.025 0.072 0.051 0.107 0.08 0.034 0.028 0.067 0.058 0.1 0.09l1.494 1.494c0.515 0.514 0.515 1.353 0 1.868-0.259 0.258-0.597 0.388-0.935 0.388-0.212 0-0.422-0.05-0.614-0.151" fill="url(#linearGradient2146)"/>
  <g clip-path="url(#clipPath1020)">
   <g transform="translate(246.88 461.17)">
    <path d="m0 0c-0.728 0-1.321-0.59-1.321-1.322v-2.113c0-0.728 0.593-1.321 1.321-1.321 0.731 0 1.322 0.593 1.322 1.321v2.113c0 0.732-0.591 1.322-1.322 1.322m0-5.957c-1.391 0-2.522 1.131-2.522 2.522v2.113c0 0.948 0.524 1.774 1.298 2.205-1.288 0.2-2.474 0.708-3.481 1.447 0.244-0.853 0.031-1.81-0.64-2.481l-1.493-1.493c-0.477-0.478-1.111-0.741-1.785-0.741-0.675 0-1.308 0.263-1.785 0.741-0.981 0.98-0.982 2.579-3e-3 3.564l2e-3 2e-3 2e-3 1e-3 1.495 1.493c0.476 0.477 1.109 0.74 1.783 0.74 0.239 0 0.472-0.033 0.695-0.096-0.738 1.006-1.245 2.192-1.444 3.478-0.431-0.773-1.257-1.297-2.204-1.297h-2.114c-1.214 0-2.232 0.864-2.469 2.009-10.041-1.985-22.661-6.073-34.802-14.42l-4.02-7.081 53.617 0.974 1.546 6.958c-0.447-0.397-1.034-0.638-1.676-0.638m3.18 7.408c-0.616-0.269-1.271-0.462-1.956-0.568 0.774-0.431 1.299-1.257 1.299-2.205v-0.184zm-11.942 7.373c-1e-3 0.014-2e-3 0.028-4e-3 0.042 0 0.016-2e-3 0.031-4e-3 0.047-1e-3 0.013-2e-3 0.027-5e-3 0.04v1e-3c-1e-3 7e-3 -2e-3 0.015-3e-3 0.022 0 1e-3 -1e-3 2e-3 -1e-3 3e-3 -2e-3 0.016-5e-3 0.031-8e-3 0.047-1e-3 3e-3 -2e-3 7e-3 -3e-3 0.01-2e-3 0.013-5e-3 0.027-9e-3 0.04-2e-3 0.01-5e-3 0.021-7e-3 0.031-2e-3 6e-3 -3e-3 0.011-5e-3 0.017-4e-3 0.015-9e-3 0.03-0.014 0.045-6e-3 0.019-0.012 0.037-0.019 0.055-1.464-0.201-3.016-0.447-4.641-0.748 4e-3 -0.018 8e-3 -0.035 0.013-0.053 1e-3 -3e-3 1e-3 -5e-3 2e-3 -8e-3 7e-3 -0.026 0.015-0.052 0.023-0.078 5e-3 -0.013 9e-3 -0.025 0.014-0.038s0.01-0.025 0.015-0.038c5e-3 -0.011 0.01-0.022 0.015-0.034 1e-3 -3e-3 2e-3 -6e-3 4e-3 -9e-3 2e-3 -4e-3 4e-3 -9e-3 6e-3 -0.013 4e-3 -9e-3 8e-3 -0.019 0.013-0.028 1e-3 -2e-3 2e-3 -3e-3 3e-3 -5e-3 3e-3 -7e-3 6e-3 -0.013 0.01-0.019l0.015-0.03c2e-3 -2e-3 3e-3 -4e-3 4e-3 -6e-3 3e-3 -5e-3 5e-3 -0.01 8e-3 -0.015 1e-3 -2e-3 2e-3 -3e-3 4e-3 -5e-3 5e-3 -0.01 0.011-0.021 0.018-0.03 1e-3 -3e-3 3e-3 -5e-3 4e-3 -7e-3 2e-3 -4e-3 5e-3 -8e-3 7e-3 -0.011 7e-3 -0.01 0.013-0.02 0.02-0.03 0.019-0.029 0.039-0.056 0.061-0.083 1e-3 -1e-3 2e-3 -2e-3 2e-3 -3e-3 0.013-0.015 0.025-0.03 0.038-0.044 0.011-0.013 0.023-0.026 0.035-0.038 1e-3 -2e-3 2e-3 -2e-3 3e-3 -4e-3 6e-3 -6e-3 0.013-0.013 0.018-0.019 7e-3 -6e-3 0.014-0.012 0.02-0.018 0.013-0.013 0.027-0.025 0.04-0.037l0.042-0.036c7e-3 -5e-3 0.014-0.011 0.022-0.017l0.012-9e-3c3e-3 -3e-3 6e-3 -5e-3 9e-3 -7e-3 0.015-0.011 0.03-0.022 0.045-0.032 0.015-0.011 0.031-0.021 0.046-0.03 9e-3 -6e-3 0.018-0.011 0.027-0.016 0.011-8e-3 0.023-0.014 0.035-0.021 5e-3 -3e-3 0.01-5e-3 0.015-8e-3 1e-3 0 2e-3 -1e-3 3e-3 -1e-3 1e-3 -1e-3 2e-3 -1e-3 3e-3 -2e-3 0.013-7e-3 0.026-0.014 0.04-0.02 1e-3 -1e-3 2e-3 -1e-3 3e-3 -2e-3 0.015-7e-3 0.031-0.014 0.047-0.021 2e-3 -1e-3 4e-3 -1e-3 6e-3 -2e-3 2e-3 -2e-3 5e-3 -3e-3 8e-3 -4e-3l0.045-0.018c0.014-5e-3 0.027-0.01 0.039-0.014 3e-3 -1e-3 5e-3 -2e-3 7e-3 -2e-3 2e-3 -1e-3 4e-3 -2e-3 7e-3 -2e-3 0.012-4e-3 0.024-8e-3 0.035-0.011 2e-3 -1e-3 5e-3 -2e-3 7e-3 -2e-3 0.01-4e-3 0.021-7e-3 0.032-9e-3 2e-3 -1e-3 3e-3 -1e-3 4e-3 -1e-3 1e-3 -1e-3 3e-3 -1e-3 4e-3 -1e-3 1e-3 -1e-3 3e-3 -1e-3 4e-3 -1e-3 3e-3 -1e-3 6e-3 -2e-3 9e-3 -2e-3 2e-3 -1e-3 4e-3 -1e-3 6e-3 -2e-3 0.015-4e-3 0.03-7e-3 0.046-0.01 0.016-4e-3 0.032-7e-3 0.048-9e-3 0.012-2e-3 0.023-4e-3 0.035-5e-3 0.016-3e-3 0.033-5e-3 0.049-6e-3 0.014-2e-3 0.027-3e-3 0.041-4e-3h2e-3c0.011-1e-3 0.021-1e-3 0.032-2e-3 0.02-1e-3 0.04-1e-3 0.059-1e-3h2.114c0.731 0 1.321 0.59 1.321 1.321 0 0.02 0 0.041-1e-3 0.06m2.031 0.665c-3e-3 -0.03-7e-3 -0.06-9e-3 -0.09-0.015-0.149-0.024-0.301-0.028-0.454 0-0.025-1e-3 -0.05-1e-3 -0.075-1e-3 -0.036-1e-3 -0.072-1e-3 -0.109 0-3.733 3.037-6.77 6.77-6.77 0.043 0 0.087 0 0.13 1e-3 0.027 0 0.054 1e-3 0.081 2e-3 0.017 0 0.034 1e-3 0.05 2e-3 0.038 1e-3 0.076 3e-3 0.114 5e-3 0.028 1e-3 0.055 3e-3 0.083 5e-3 0.021 1e-3 0.042 3e-3 0.063 5e-3 0.065 4e-3 0.13 0.01 0.194 0.017 0.03 3e-3 0.059 7e-3 0.089 0.01 0.019 2e-3 0.039 5e-3 0.058 7e-3 0.029 4e-3 0.058 8e-3 0.087 0.012 0.039 5e-3 0.077 0.011 0.116 0.017 0.022 4e-3 0.043 7e-3 0.065 0.011s0.045 8e-3 0.068 0.012c0.01 1e-3 0.02 3e-3 0.031 5e-3 0.021 4e-3 0.043 8e-3 0.066 0.013 0.036 7e-3 0.073 0.014 0.109 0.022 0.115 0.024 0.229 0.051 0.343 0.082 0.035 0.01 0.071 0.019 0.106 0.029 0.064 0.018 0.127 0.038 0.19 0.058 0.017 5e-3 0.033 0.01 0.049 0.015 0.026 9e-3 0.053 0.017 0.078 0.026 0.024 8e-3 0.047 0.016 0.069 0.024 0.115 0.04 0.229 0.084 0.341 0.13 0.018 7e-3 0.036 0.015 0.055 0.023 0.066 0.028 0.132 0.057 0.198 0.087 0.03 0.014 0.06 0.029 0.091 0.044 0.102 0.049 0.203 0.1 0.303 0.154 0.033 0.018 0.065 0.036 0.097 0.055 0.063 0.035 0.125 0.071 0.186 0.108 3e-3 2e-3 6e-3 4e-3 9e-3 5e-3v1e-3l1.567 7.05s-4.606 0.29-11.817-0.539"/>
   </g>
  </g>
  <path d="m246.72 476.7c-0.043-1e-3 -0.085-2e-3 -0.126-4e-3l-0.06-3e-3c-7e-3 0-0.014-1e-3 -0.021-1e-3 -0.035-2e-3 -0.071-4e-3 -0.105-7e-3 -7e-3 0-0.013-1e-3 -0.02-1e-3 -0.037-2e-3 -0.075-5e-3 -0.111-9e-3 -3e-3 0-7e-3 -1e-3 -9e-3 -1e-3 -0.018-1e-3 -0.036-3e-3 -0.053-5e-3 -0.044-4e-3 -0.088-8e-3 -0.132-0.014-0.059-7e-3 -0.119-0.015-0.177-0.023-0.045-6e-3 -0.089-0.014-0.133-0.021-0.011-2e-3 -0.021-3e-3 -0.031-5e-3 -0.091-0.015-0.181-0.032-0.27-0.051-0.066-0.015-0.133-0.03-0.199-0.046-0.042-0.01-0.083-0.021-0.125-0.032-0.039-0.011-0.078-0.021-0.117-0.032-0.014-4e-3 -0.029-8e-3 -0.042-0.012-0.04-0.012-0.079-0.024-0.118-0.036-0.011-4e-3 -0.022-7e-3 -0.032-0.01-0.038-0.012-0.076-0.024-0.113-0.038-0.019-5e-3 -0.037-0.011-0.055-0.018-0.037-0.012-0.073-0.025-0.109-0.038-0.053-0.02-0.107-0.041-0.159-0.061-0.044-0.017-0.086-0.035-0.13-0.053-8e-3 -3e-3 -0.015-7e-3 -0.023-0.01-0.041-0.017-0.083-0.035-0.123-0.053-0.047-0.021-0.094-0.043-0.14-0.064-0.037-0.018-0.075-0.037-0.111-0.055-1e-3 0-3e-3 -1e-3 -5e-3 -2e-3 -0.02-0.01-0.039-0.02-0.059-0.03-0.035-0.018-0.071-0.036-0.106-0.055-0.08-0.043-0.16-0.087-0.238-0.134-0.055-0.032-0.11-0.065-0.163-0.098-0.04-0.024-0.078-0.049-0.117-0.075-0.035-0.023-0.069-0.046-0.104-0.069-0.017-0.012-0.033-0.023-0.05-0.034-0.026-0.019-0.053-0.038-0.079-0.056-0.017-0.013-0.033-0.024-0.05-0.036-2e-3 -2e-3 -4e-3 -3e-3 -5e-3 -5e-3 -0.029-0.02-0.058-0.042-0.086-0.063-0.037-0.027-0.073-0.055-0.109-0.083-7e-3 -7e-3 -0.015-0.013-0.022-0.018-0.035-0.028-0.07-0.056-0.104-0.085-1e-3 -1e-3 -3e-3 -2e-3 -4e-3 -3e-3 -0.035-0.028-0.07-0.058-0.104-0.088-0.159-0.136-0.311-0.28-0.456-0.43-0.025-0.026-0.049-0.051-0.073-0.077-5e-3 -6e-3 -9e-3 -0.01-0.014-0.015-0.014-0.014-0.027-0.028-0.04-0.044-0.026-0.027-0.051-0.056-0.076-0.083-0.023-0.026-0.044-0.052-0.067-0.077-0.021-0.026-0.043-0.051-0.064-0.077-0.018-0.019-0.034-0.04-0.05-0.06-0.01-0.012-0.02-0.024-0.03-0.037-0.025-0.031-0.05-0.063-0.075-0.095-0.056-0.072-0.11-0.146-0.163-0.221-0.013-0.016-0.025-0.033-0.036-0.05-0.083-0.119-0.161-0.239-0.237-0.363-0.026-0.043-0.051-0.087-0.076-0.131-2e-3 -1e-3 -3e-3 -3e-3 -3e-3 -5e-3 -0.023-0.038-0.045-0.077-0.067-0.117-0.03-0.056-0.061-0.113-0.09-0.171-0.02-0.036-0.038-0.075-0.056-0.113-0.023-0.045-0.045-0.092-0.067-0.139-6e-3 -0.014-0.013-0.028-0.02-0.044-0.014-0.031-0.029-0.064-0.042-0.096-0.021-0.047-0.041-0.095-0.06-0.142-0.021-0.052-0.042-0.103-0.061-0.154-0.017-0.045-0.033-0.09-0.049-0.134-0.017-0.05-0.034-0.098-0.05-0.148-0.016-0.048-0.031-0.096-0.046-0.145-3e-3 -0.011-7e-3 -0.021-0.01-0.033-0.012-0.04-0.024-0.079-0.035-0.12-0.01-0.04-0.022-0.081-0.032-0.122-4e-3 -0.014-7e-3 -0.027-0.011-0.041-0.011-0.045-0.023-0.093-0.033-0.141-0.011-0.048-0.022-0.096-0.032-0.145 0-3e-3 0-5e-3 -1e-3 -8e-3 -0.01-0.05-0.02-0.101-0.029-0.151-1e-3 -2e-3 -1e-3 -5e-3 -2e-3 -6e-3 -9e-3 -0.052-0.017-0.103-0.025-0.154-8e-3 -0.052-0.016-0.105-0.023-0.158-7e-3 -0.052-0.013-0.105-0.019-0.158-3e-3 -0.031-7e-3 -0.061-9e-3 -0.09-0.014-0.15-0.023-0.302-0.028-0.455 0-0.025-1e-3 -0.049-1e-3 -0.074 0-0.036-1e-3 -0.073-1e-3 -0.109 0-3.734 3.037-6.771 6.77-6.771 0.044 0 0.087 1e-3 0.13 1e-3l0.081 3e-3c0.017 0 0.034 1e-3 0.051 1e-3 0.037 1e-3 0.076 3e-3 0.114 6e-3 0.028 1e-3 0.055 3e-3 0.082 4e-3 0.02 1e-3 0.042 3e-3 0.063 5e-3 0.065 4e-3 0.13 0.011 0.195 0.018 0.029 2e-3 0.059 6e-3 0.088 0.01 0.02 1e-3 0.039 4e-3 0.059 7e-3 0.029 3e-3 0.057 7e-3 0.086 0.011 0.039 6e-3 0.078 0.011 0.116 0.018 0.022 3e-3 0.043 7e-3 0.065 0.011 0.022 3e-3 0.046 8e-3 0.068 0.011 0.01 2e-3 0.02 4e-3 0.031 6e-3 0.022 3e-3 0.044 8e-3 0.067 0.012 0.036 7e-3 0.072 0.015 0.108 0.022 0.116 0.025 0.23 0.052 0.343 0.083 0.035 9e-3 0.071 0.018 0.106 0.028 0.064 0.018 0.127 0.038 0.19 0.058 0.017 5e-3 0.033 0.01 0.049 0.015 0.027 9e-3 0.053 0.017 0.078 0.026 0.024 8e-3 0.047 0.016 0.07 0.024 0.115 0.04 0.228 0.084 0.341 0.13 0.018 8e-3 0.036 0.015 0.054 0.023 0.066 0.028 0.132 0.057 0.199 0.088 0.029 0.014 0.06 0.028 0.09 0.043 0.102 0.049 0.203 0.1 0.303 0.154 0.033 0.018 0.066 0.036 0.097 0.055 0.064 0.035 0.125 0.072 0.186 0.109 3e-3 1e-3 7e-3 3e-3 9e-3 4e-3v1e-3c0.067 0.041 0.134 0.083 0.198 0.125 0.054 0.036 0.108 0.072 0.16 0.109 0.063 0.044 0.126 0.089 0.186 0.135 0.024 0.018 0.049 0.036 0.072 0.055 0.037 0.028 0.073 0.057 0.109 0.086 0.039 0.03 0.077 0.063 0.115 0.095 0.015 0.012 0.028 0.023 0.042 0.035 0.021 0.018 0.043 0.036 0.064 0.055 0.026 0.023 0.053 0.047 0.079 0.071l0.078 0.072c0.023 0.022 0.046 0.043 0.068 0.065 0.033 0.031 0.066 0.063 0.098 0.095 0.045 0.046 0.091 0.093 0.136 0.141 0.025 0.026 0.049 0.051 0.072 0.077 0.024 0.026 0.047 0.052 0.072 0.078 0.023 0.027 0.047 0.054 0.071 0.082 0.064 0.075 0.127 0.152 0.189 0.23 0.301 0.384 0.563 0.801 0.777 1.245 0.01 0.021 0.021 0.044 0.031 0.065 0.025 0.052 0.049 0.106 0.072 0.16 0.011 0.024 0.022 0.049 0.032 0.075 0.014 0.03 0.026 0.06 0.038 0.089 0.018 0.047 0.037 0.094 0.055 0.141 0.021 0.053 0.04 0.106 0.058 0.16 9e-3 0.024 0.018 0.048 0.026 0.074 0.017 0.05 0.034 0.101 0.05 0.152 1e-3 3e-3 3e-3 6e-3 3e-3 0.01 8e-3 0.025 0.015 0.05 0.023 0.075 0.024 0.08 0.046 0.161 0.067 0.241 8e-3 0.028 0.014 0.055 0.02 0.082 8e-3 0.027 0.014 0.054 0.02 0.081 0.021 0.09 0.04 0.18 0.057 0.27 4e-3 0.02 7e-3 0.04 0.011 0.061 0.01 0.061 0.021 0.122 0.03 0.183 6e-3 0.037 0.011 0.074 0.016 0.111s9e-3 0.074 0.014 0.111c4e-3 0.033 7e-3 0.066 0.011 0.1 2e-3 0.03 5e-3 0.061 8e-3 0.091 3e-3 0.026 4e-3 0.054 6e-3 0.081 3e-3 0.023 4e-3 0.045 7e-3 0.07 0 0.023 2e-3 0.047 3e-3 0.072 2e-3 0.022 3e-3 0.046 4e-3 0.069 2e-3 0.026 2e-3 0.053 2e-3 0.08 2e-3 0.038 3e-3 0.076 3e-3 0.114 1e-3 0.037 2e-3 0.076 2e-3 0.115 0 3.736-3.038 6.772-6.774 6.772-0.054 0-0.108-1e-3 -0.162-2e-3" fill="url(#linearGradient1042)"/>
  <path d="m252.02 465.52c0.064 0.075 0.127 0.152 0.189 0.23-0.063-0.078-0.126-0.155-0.189-0.23m-1.629-1.381c3e-3 1e-3 7e-3 3e-3 9e-3 4e-3v1e-3c-2e-3 -2e-3 -5e-3 -3e-3 -9e-3 -5e-3" fill="url(#linearGradient1062)"/>
  <path d="m245.56 482.13v-2.112c0-0.731 0.593-1.321 1.321-1.321 0.731 0 1.322 0.59 1.322 1.321v2.112c0 0.732-0.591 1.322-1.322 1.322-0.728 0-1.321-0.59-1.321-1.322" fill="url(#linearGradient1082)"/>
  <path d="m245.56 459.85v-2.114c0-0.727 0.593-1.32 1.321-1.32 0.731 0 1.322 0.593 1.322 1.32v2.114c0 0.731-0.591 1.321-1.322 1.321-0.728 0-1.321-0.59-1.321-1.321" fill="url(#linearGradient1102)"/>
  <path d="m255.44 479.88c-0.021-2e-3 -0.042-3e-3 -0.063-5e-3 -0.021-3e-3 -0.042-4e-3 -0.063-8e-3 -0.021-3e-3 -0.042-6e-3 -0.063-0.011-0.02-3e-3 -0.042-8e-3 -0.062-0.012-0.021-6e-3 -0.041-0.011-0.062-0.017-0.02-7e-3 -0.041-0.013-0.06-0.02s-0.037-0.013-0.055-0.02l-0.021-9e-3c-9e-3 -4e-3 -0.016-7e-3 -0.025-0.011-0.01-4e-3 -0.02-8e-3 -0.03-0.013-2e-3 -1e-3 -3e-3 -1e-3 -4e-3 -2e-3 -0.015-6e-3 -0.029-0.014-0.043-0.022-0.038-0.02-0.076-0.042-0.112-0.066-0.019-0.012-0.037-0.025-0.055-0.037-0.035-0.026-0.07-0.054-0.103-0.085-0.017-0.015-0.034-0.03-0.049-0.047l-1.494-1.496c-0.518-0.515-0.518-1.351 0-1.868 0.032-0.032 0.066-0.063 0.1-0.091 0.017-0.013 0.035-0.027 0.053-0.04 0.035-0.026 0.072-0.051 0.11-0.073 0.013-8e-3 0.028-0.016 0.042-0.024s0.028-0.015 0.042-0.022c0.088-0.043 0.18-0.077 0.275-0.099 0.013-3e-3 0.026-6e-3 0.039-9e-3 0.064-0.014 0.128-0.022 0.192-0.025h1e-3c0.031-2e-3 0.061-3e-3 0.092-3e-3h0.028 0.01c8e-3 1e-3 0.016 2e-3 0.023 2e-3h5e-3c9e-3 1e-3 0.016 1e-3 0.023 2e-3 9e-3 1e-3 0.018 1e-3 0.027 2e-3 0.014 1e-3 0.028 3e-3 0.042 5e-3 0.015 2e-3 0.028 4e-3 0.042 6e-3 3e-3 0 7e-3 1e-3 0.01 1e-3 2e-3 1e-3 3e-3 1e-3 5e-3 2e-3 9e-3 1e-3 0.019 3e-3 0.029 4e-3 9e-3 2e-3 0.019 5e-3 0.028 7e-3 0.019 4e-3 0.04 9e-3 0.061 0.015l0.041 0.012c0.017 4e-3 0.033 0.01 0.05 0.016 0.018 6e-3 0.036 0.012 0.054 0.02 4e-3 1e-3 0.01 3e-3 0.013 6e-3 0.012 4e-3 0.024 9e-3 0.035 0.014 9e-3 4e-3 0.018 8e-3 0.027 0.013 0.013 5e-3 0.025 0.012 0.038 0.018 9e-3 4e-3 0.017 9e-3 0.025 0.013 0.015 8e-3 0.028 0.016 0.043 0.024 0.015 9e-3 0.029 0.018 0.044 0.028 6e-3 4e-3 0.012 8e-3 0.019 0.012 6e-3 4e-3 0.012 8e-3 0.019 0.013 1e-3 1e-3 3e-3 3e-3 5e-3 3e-3 0 1e-3 1e-3 1e-3 1e-3 1e-3 8e-3 6e-3 0.016 0.012 0.024 0.017 0.017 0.013 0.034 0.027 0.05 0.039 0.035 0.028 0.069 0.059 0.101 0.091l1.493 1.493c0.518 0.518 0.518 1.354 0 1.871-0.016 0.017-0.032 0.032-0.049 0.047-0.033 0.031-0.068 0.059-0.104 0.085-0.018 0.012-0.036 0.025-0.054 0.037-0.036 0.024-0.073 0.046-0.111 0.066-0.015 8e-3 -0.029 0.016-0.043 0.022-2e-3 1e-3 -3e-3 1e-3 -5e-3 2e-3 -9e-3 5e-3 -0.019 9e-3 -0.029 0.013h-1e-3c-9e-3 4e-3 -0.016 7e-3 -0.025 0.011-7e-3 3e-3 -0.013 6e-3 -0.021 9e-3 -0.018 7e-3 -0.036 0.013-0.053 0.02-0.02 7e-3 -0.041 0.013-0.062 0.02-0.02 6e-3 -0.041 0.011-0.062 0.017-0.02 4e-3 -0.041 9e-3 -0.062 0.012-0.021 5e-3 -0.041 8e-3 -0.063 0.011-0.021 4e-3 -0.041 5e-3 -0.063 8e-3 -0.021 2e-3 -0.041 3e-3 -0.063 5e-3 -0.021 0-0.042 1e-3 -0.063 1e-3s-0.043-1e-3 -0.064-1e-3" fill="url(#linearGradient1122)"/>
  <path d="m256.39 479.54c-0.033 0.031-0.068 0.059-0.104 0.085 0.036-0.026 0.071-0.055 0.104-0.085m-1.769 0c0.033 0.03 0.068 0.059 0.103 0.085-0.035-0.026-0.07-0.054-0.103-0.085m-1.28-3.615c-0.038 0.022-0.075 0.047-0.11 0.073 0.035-0.026 0.072-0.051 0.11-0.073m0.186-0.09c-4e-3 1e-3 -9e-3 3e-3 -0.014 5e-3 5e-3 -2e-3 0.01-4e-3 0.014-5e-3m0.075-0.027c-0.025 8e-3 -0.05 0.017-0.075 0.027 0.025-0.011 0.05-0.02 0.075-0.027m0.403-0.065h-1e-3 -8e-3 0.028z" fill="url(#linearGradient1142)"/>
  <path d="m239.14 463.97c-0.038-0.021-0.076-0.044-0.113-0.067-0.073-0.049-0.142-0.105-0.206-0.17l-1.496-1.494c-0.515-0.517-0.515-1.353 0-1.868 0.032-0.032 0.065-0.062 0.1-0.09 0.035-0.029 0.071-0.055 0.107-0.08 0.018-0.012 0.037-0.023 0.056-0.035 0.038-0.022 0.076-0.042 0.115-0.06 0.176-0.082 0.367-0.123 0.557-0.123 0.191 0 0.38 0.041 0.557 0.123 0.038 0.018 0.077 0.038 0.115 0.06 0.019 0.012 0.037 0.024 0.056 0.035 0.037 0.025 0.072 0.051 0.107 0.08 0.034 0.028 0.067 0.058 0.1 0.09l1.494 1.494c0.515 0.514 0.515 1.353 0 1.868-0.259 0.258-0.597 0.388-0.935 0.388-0.212 0-0.422-0.05-0.614-0.151" fill="url(#linearGradient2146)"/>
  <path d="m238.99 460.2c0.037 0.025 0.072 0.051 0.107 0.08-0.035-0.029-0.07-0.054-0.107-0.08m-1.455 0c-0.037 0.026-0.073 0.051-0.108 0.08 0.035-0.029 0.071-0.055 0.108-0.08m1.284-0.095c0.038 0.018 0.077 0.038 0.115 0.06-0.038-0.021-0.077-0.042-0.115-0.06m-1.114 0c-0.039 0.018-0.077 0.039-0.115 0.06 0.038-0.022 0.076-0.042 0.115-0.06" fill="url(#linearGradient1182)"/>
  <path d="m256.97 471.25c-0.731 0-1.321-0.594-1.321-1.322 0-0.73 0.59-1.321 1.321-1.321h2.113c0.728 0 1.321 0.591 1.321 1.321 0 0.728-0.593 1.322-1.321 1.322z" fill="url(#linearGradient1202)"/>
  <path d="m234.69 471.25c-0.731 0-1.322-0.594-1.322-1.322 0-0.018 0-0.036 1e-3 -0.054 1e-3 -6e-3 1e-3 -0.013 1e-3 -0.02 1e-3 -0.021 3e-3 -0.041 6e-3 -0.061 0-0.016 2e-3 -0.031 5e-3 -0.047 0-2e-3 0-5e-3 1e-3 -7e-3 2e-3 -9e-3 3e-3 -0.018 4e-3 -0.027 2e-3 -0.013 4e-3 -0.026 7e-3 -0.037 0-1e-3 1e-3 -2e-3 1e-3 -3e-3 1e-3 -0.011 4e-3 -0.022 7e-3 -0.032 3e-3 -0.018 7e-3 -0.035 0.011-0.053 2e-3 -2e-3 2e-3 -5e-3 3e-3 -8e-3 6e-3 -0.026 0.015-0.052 0.024-0.078 4e-3 -0.013 9e-3 -0.025 0.013-0.038 6e-3 -0.013 0.01-0.025 0.015-0.038 5e-3 -0.01 9e-3 -0.022 0.015-0.033 1e-3 -4e-3 2e-3 -7e-3 4e-3 -0.01s4e-3 -8e-3 6e-3 -0.013c4e-3 -9e-3 9e-3 -0.018 0.013-0.027l3e-3 -6e-3c3e-3 -6e-3 6e-3 -0.013 0.01-0.019 5e-3 -0.01 0.011-0.019 0.015-0.03 2e-3 -2e-3 3e-3 -4e-3 4e-3 -6e-3 3e-3 -4e-3 5e-3 -0.01 9e-3 -0.014 1e-3 -3e-3 2e-3 -4e-3 3e-3 -6e-3l0.018-0.03c1e-3 -3e-3 3e-3 -5e-3 4e-3 -7e-3 3e-3 -4e-3 5e-3 -8e-3 8e-3 -0.011 6e-3 -0.01 0.013-0.02 0.019-0.03 0.019-0.029 0.039-0.057 0.062-0.083 0-1e-3 1e-3 -1e-3 2e-3 -2e-3 0.012-0.016 0.024-0.031 0.038-0.044 0.01-0.014 0.023-0.027 0.035-0.039 0-1e-3 1e-3 -2e-3 2e-3 -4e-3 6e-3 -6e-3 0.013-0.012 0.018-0.019 8e-3 -6e-3 0.014-0.012 0.02-0.018 0.014-0.012 0.027-0.025 0.04-0.037 0.014-0.012 0.029-0.024 0.042-0.035 7e-3 -6e-3 0.014-0.012 0.022-0.018 4e-3 -2e-3 8e-3 -6e-3 0.012-9e-3 3e-3 -2e-3 7e-3 -5e-3 9e-3 -7e-3 0.015-0.011 0.03-0.022 0.045-0.032 0.016-0.01 0.031-0.021 0.046-0.03 9e-3 -5e-3 0.018-0.011 0.027-0.016 0.012-7e-3 0.024-0.014 0.035-0.021 6e-3 -2e-3 0.01-5e-3 0.016-8e-3 1e-3 0 1e-3 -1e-3 2e-3 -1e-3 1e-3 -1e-3 2e-3 -1e-3 3e-3 -2e-3 0.013-7e-3 0.027-0.013 0.041-0.02 0 0 1e-3 -1e-3 3e-3 -1e-3 0.014-8e-3 0.03-0.016 0.046-0.022 3e-3 -1e-3 5e-3 -1e-3 6e-3 -3e-3 3e-3 0 6e-3 -1e-3 8e-3 -2e-3 0.015-7e-3 0.03-0.013 0.045-0.018 0.014-6e-3 0.026-0.011 0.04-0.015 3e-3 0 5e-3 -1e-3 6e-3 -2e-3 3e-3 -1e-3 5e-3 -2e-3 8e-3 -2e-3 0.011-5e-3 0.023-7e-3 0.035-0.011 1e-3 -1e-3 4e-3 -2e-3 6e-3 -3e-3 0.011-2e-3 0.021-6e-3 0.032-9e-3 2e-3 0 3e-3 0 5e-3 -1e-3h3e-3c1e-3 0 3e-3 -1e-3 4e-3 -1e-3 4e-3 -1e-3 6e-3 -2e-3 9e-3 -2e-3 2e-3 -1e-3 4e-3 -1e-3 6e-3 -2e-3 0.015-4e-3 0.031-7e-3 0.046-0.01 0.016-3e-3 0.032-7e-3 0.049-9e-3 0.011-3e-3 0.022-4e-3 0.035-5e-3 0.016-3e-3 0.032-5e-3 0.048-7e-3 0.014 0 0.028-2e-3 0.042-3e-3h2e-3c0.01-1e-3 0.02-1e-3 0.032-2e-3 0.019-1e-3 0.039-1e-3 0.059-1e-3h2.114c0.731 0 1.32 0.591 1.32 1.321 0 0.02 0 0.041-1e-3 0.061-1e-3 0.013-2e-3 0.027-4e-3 0.041 0 0.016-1e-3 0.032-3e-3 0.047-2e-3 0.013-3e-3 0.027-5e-3 0.04v1e-3c-1e-3 8e-3 -2e-3 0.015-4e-3 0.022v3e-3c-3e-3 0.016-5e-3 0.032-9e-3 0.047 0 4e-3 -1e-3 8e-3 -2e-3 0.01-3e-3 0.014-6e-3 0.027-9e-3 0.04-3e-3 0.011-5e-3 0.021-8e-3 0.031-1e-3 7e-3 -3e-3 0.012-5e-3 0.017-4e-3 0.016-9e-3 0.031-0.013 0.045-6e-3 0.018-0.013 0.036-0.02 0.054-0.011 0.033-0.023 0.063-0.038 0.093-7e-3 0.015-0.014 0.031-0.021 0.045s-0.015 0.027-0.022 0.041c-6e-3 0.012-0.013 0.024-0.02 0.035-5e-3 8e-3 -0.01 0.016-0.014 0.023-7e-3 0.011-0.014 0.022-0.021 0.032-0.01 0.016-0.021 0.032-0.032 0.046-6e-3 0.01-0.015 0.02-0.022 0.03-9e-3 0.012-0.018 0.023-0.029 0.036-0.013 0.016-0.026 0.032-0.041 0.048-0.012 0.012-0.022 0.025-0.035 0.037-4e-3 5e-3 -9e-3 0.01-0.014 0.013 0 2e-3 -1e-3 3e-3 -3e-3 5e-3 -1e-3 1e-3 -2e-3 1e-3 -3e-3 1e-3 -7e-3 8e-3 -0.014 0.015-0.021 0.021-1e-3 2e-3 -4e-3 4e-3 -6e-3 6e-3 -1e-3 0-2e-3 1e-3 -2e-3 2e-3 -0.018 0.017-0.036 0.032-0.053 0.046-0.016 0.014-0.033 0.027-0.05 0.04-0.017 0.012-0.034 0.024-0.051 0.037-0.014 9e-3 -0.027 0.017-0.041 0.026-1e-3 1e-3 -3e-3 1e-3 -3e-3 3e-3h-1e-3c-6e-3 3e-3 -0.012 7e-3 -0.018 0.01-6e-3 4e-3 -0.012 7e-3 -0.018 0.01-7e-3 4e-3 -0.012 8e-3 -0.019 0.012-6e-3 3e-3 -0.012 5e-3 -0.017 9e-3 -0.015 8e-3 -0.029 0.015-0.044 0.022-4e-3 3e-3 -9e-3 5e-3 -0.013 7e-3 -0.016 8e-3 -0.033 0.016-0.051 0.023-0.019 8e-3 -0.039 0.015-0.06 0.023-0.033 0.013-0.067 0.024-0.102 0.033-0.011 3e-3 -0.023 6e-3 -0.035 9e-3h-1e-3s0 1e-3 -1e-3 1e-3c-0.035 8e-3 -0.071 0.016-0.107 0.021-0.012 2e-3 -0.025 4e-3 -0.037 5e-3 -1e-3 0-2e-3 1e-3 -3e-3 1e-3 -0.012 2e-3 -0.023 3e-3 -0.033 3e-3 -2e-3 0-4e-3 1e-3 -6e-3 1e-3 -0.015 2e-3 -0.031 3e-3 -0.047 4e-3h-5e-3c-6e-3 1e-3 -0.013 2e-3 -0.02 2e-3 -0.019 1e-3 -0.038 1e-3 -0.057 1e-3z" fill="url(#linearGradient1222)"/>
  <path d="m238.03 470.41c-0.01 0.026-0.02 0.052-0.033 0.077 0.012-0.026 0.023-0.051 0.033-0.077m5e-3 -0.016c-2e-3 6e-3 -3e-3 0.011-5e-3 0.016 2e-3 -6e-3 3e-3 -0.01 5e-3 -0.016" fill="url(#linearGradient1242)"/>
  <path d="m253.08 463.73c-0.518-0.515-0.518-1.354 0-1.868l1.494-1.494c0.517-0.517 1.353-0.517 1.867 0 0.518 0.514 0.518 1.351 0 1.868l-1.493 1.494c-0.258 0.257-0.597 0.386-0.935 0.386s-0.676-0.129-0.933-0.386" fill="url(#linearGradient1262)"/>
  <path d="m238.21 479.88c-1e-3 0-3e-3 0-5e-3 -1e-3 -8e-3 0-0.016-1e-3 -0.025-2e-3 -0.016 0-0.033-2e-3 -0.049-4e-3 -0.02-2e-3 -0.039-4e-3 -0.058-6e-3 -0.043-6e-3 -0.084-0.014-0.126-0.025-0.018-5e-3 -0.037-9e-3 -0.056-0.015-4e-3 0-8e-3 -2e-3 -0.013-3e-3 -0.013-5e-3 -0.028-9e-3 -0.041-0.014-2e-3 -1e-3 -3e-3 -1e-3 -4e-3 -1e-3 -0.018-7e-3 -0.036-0.013-0.054-0.02-8e-3 -3e-3 -0.017-7e-3 -0.025-0.01-2e-3 0-3e-3 -1e-3 -3e-3 -1e-3 -0.014-6e-3 -0.028-0.012-0.041-0.018-0.014-6e-3 -0.028-0.013-0.041-0.02 0 0 0-1e-3 -1e-3 -1e-3 -3e-3 -1e-3 -6e-3 -2e-3 -8e-3 -3e-3 -8e-3 -5e-3 -0.017-9e-3 -0.025-0.014-0.015-7e-3 -0.03-0.016-0.046-0.025s-0.032-0.02-0.048-0.03c-5e-3 -3e-3 -9e-3 -5e-3 -0.013-9e-3 -3e-3 -2e-3 -5e-3 -3e-3 -8e-3 -5e-3 -0.013-9e-3 -0.027-0.018-0.04-0.029-0.035-0.024-0.069-0.052-0.101-0.082-2e-3 -1e-3 -4e-3 -3e-3 -6e-3 -4e-3 -1e-3 -1e-3 -2e-3 -3e-3 -3e-3 -4e-3 -2e-3 -2e-3 -4e-3 -4e-3 -6e-3 -4e-3 -0.012-0.011-0.025-0.024-0.037-0.037-0.515-0.515-0.515-1.351 0-1.869l1.496-1.493c0.013-0.013 0.025-0.026 0.039-0.038 2e-3 -2e-3 3e-3 -2e-3 5e-3 -3e-3 3e-3 -4e-3 6e-3 -7e-3 9e-3 -9e-3 0.014-0.013 0.027-0.025 0.041-0.036 1e-3 0 2e-3 -1e-3 3e-3 -2e-3 2e-3 -2e-3 6e-3 -5e-3 9e-3 -7e-3 0.015-0.013 0.031-0.026 0.046-0.037 0.036-0.026 0.073-0.051 0.11-0.073 0.019-0.011 0.038-0.022 0.058-0.032 0.038-0.02 0.076-0.038 0.116-0.054 0.159-0.065 0.328-0.098 0.497-0.098 0.016 0 0.032 1e-3 0.048 1e-3h5e-3c7e-3 0 0.015 1e-3 0.023 2e-3 0.012 0 0.024 2e-3 0.037 3e-3 7e-3 0 0.015 1e-3 0.023 2e-3 9e-3 0 0.018 1e-3 0.027 2e-3 0 1e-3 3e-3 1e-3 4e-3 1e-3 5e-3 0 9e-3 2e-3 0.013 2e-3 6e-3 1e-3 0.013 2e-3 0.019 3e-3 2e-3 0 4e-3 0 7e-3 1e-3 0.015 2e-3 0.031 5e-3 0.047 8e-3 0.019 3e-3 0.04 8e-3 0.06 0.013h2e-3c0.019 5e-3 0.037 0.01 0.055 0.015 4e-3 1e-3 9e-3 3e-3 0.012 4e-3 0.017 5e-3 0.033 0.011 0.05 0.016 4e-3 2e-3 9e-3 4e-3 0.012 5e-3 0.012 3e-3 0.023 8e-3 0.034 0.012 2e-3 1e-3 6e-3 2e-3 0.01 4e-3 7e-3 4e-3 0.013 5e-3 0.02 9e-3 7e-3 2e-3 0.014 5e-3 0.021 9e-3 0.013 5e-3 0.026 0.011 0.039 0.017 2e-3 2e-3 6e-3 3e-3 9e-3 4e-3 0.026 0.012 0.051 0.026 0.076 0.041 0.014 8e-3 0.027 0.015 0.04 0.023 0.015 9e-3 0.03 0.019 0.045 0.029s0.029 0.02 0.044 0.031c0.013 0.01 0.027 0.02 0.04 0.031 9e-3 7e-3 0.017 0.014 0.026 0.022 1e-3 1e-3 3e-3 3e-3 5e-3 4e-3 6e-3 5e-3 0.013 0.011 0.021 0.017 0 0 1e-3 1e-3 1e-3 2e-3 8e-3 7e-3 0.014 0.012 0.021 0.018 0.013 0.012 0.026 0.025 0.039 0.038 0.515 0.517 0.515 1.353 0 1.868l-1.494 1.494c-0.013 0.012-0.025 0.025-0.039 0.037-7e-3 7e-3 -0.015 0.014-0.023 0.02-0.014 0.013-0.028 0.025-0.043 0.036-1e-3 1e-3 -1e-3 2e-3 -2e-3 2e-3 0 1e-3 0 1e-3 -1e-3 1e-3 -2e-3 2e-3 -3e-3 3e-3 -5e-3 3e-3 -1e-3 1e-3 -2e-3 3e-3 -3e-3 3e-3 -5e-3 5e-3 -9e-3 8e-3 -0.015 0.012l-3e-3 3e-3c-9e-3 7e-3 -0.017 0.013-0.027 0.02h-1e-3c0 1e-3 -1e-3 1e-3 -2e-3 2e-3 -0.011 8e-3 -0.022 0.015-0.032 0.023l-0.018 0.012c-0.017 0.01-0.033 0.021-0.049 0.03-0.018 0.011-0.036 0.021-0.054 0.031-1e-3 0-3e-3 0-4e-3 1e-3 -0.014 8e-3 -0.029 0.016-0.045 0.023-1e-3 0-1e-3 0-2e-3 1e-3l-4e-3 1e-3s-1e-3 0-2e-3 1e-3c-2e-3 1e-3 -6e-3 3e-3 -9e-3 5e-3 -0.013 6e-3 -0.027 0.012-0.04 0.018-2e-3 0-3e-3 1e-3 -5e-3 1e-3 -8e-3 3e-3 -0.016 7e-3 -0.025 0.01-0.018 7e-3 -0.035 0.013-0.053 0.02-1e-3 0-3e-3 0-4e-3 1e-3 -0.014 5e-3 -0.027 9e-3 -0.042 0.014-4e-3 1e-3 -8e-3 3e-3 -0.013 3e-3 -0.017 6e-3 -0.036 0.01-0.055 0.015-0.042 0.011-0.083 0.019-0.125 0.025-0.02 2e-3 -0.039 4e-3 -0.059 6e-3 -0.016 2e-3 -0.033 4e-3 -0.049 4e-3 -9e-3 1e-3 -0.018 2e-3 -0.026 2e-3 -1e-3 1e-3 -3e-3 1e-3 -4e-3 1e-3h-0.052-0.052" fill="url(#linearGradient1282)"/>
  <path d="m238.58 479.84c-0.042 0.011-0.083 0.019-0.125 0.025 0.042-6e-3 0.083-0.014 0.125-0.025m-0.63 0c0.042 0.011 0.083 0.019 0.126 0.025-0.043-6e-3 -0.084-0.014-0.126-0.025" fill="url(#linearGradient1302)"/>
 </g>
</svg>
