<svg width="117" height="47" viewBox="0 0 117 47" fill="none" xmlns="http://www.w3.org/2000/svg">
<path d="M62.38 16.65L112.28 13.1C112.28 13.1 108.96 4.79001 95.18 4.25001C81.4 3.71001 56.5 4.25001 56.5 4.25001L64.38 4.01002L63.02 6.84004L63.31 11.42L62.38 16.65Z" fill="black"/>
<path d="M115.87 30.59C115.89 30.22 115.91 29.83 115.91 29.45C115.98 29.36 116 29.29 116.01 29.24L115.91 29.22C115.91 29.17 115.91 29.12 115.91 29.07C115.91 29.06 115.91 29.04 115.91 29.03C115.91 29.02 115.91 29.02 115.91 29.01C115.91 28.88 115.9 28.76 115.9 28.63V28.56C115.9 28.54 115.9 28.52 115.9 28.49C115.9 28.46 115.9 28.42 115.89 28.39V28.38V28.37C115.88 28.28 115.88 28.18 115.87 28.09C115.87 28.08 115.87 28.07 115.87 28.06C115.87 28.03 115.87 28.01 115.86 27.98C115.86 27.96 115.86 27.94 115.85 27.92C115.85 27.9 115.85 27.89 115.85 27.87C115.85 27.83 115.84 27.78 115.84 27.74C115.84 27.72 115.84 27.71 115.83 27.69C115.83 27.69 115.83 27.69 115.83 27.68C115.82 27.63 115.82 27.58 115.81 27.53C115.8 27.46 115.79 27.39 115.78 27.32C115.78 27.3 115.77 27.29 115.77 27.27C115.76 27.23 115.76 27.19 115.75 27.15C115.74 27.11 115.74 27.08 115.73 27.04C115.72 26.99 115.71 26.93 115.69 26.88C115.69 26.87 115.69 26.87 115.69 26.86C115.68 26.83 115.68 26.8 115.67 26.78C115.66 26.76 115.66 26.74 115.65 26.72C115.65 26.71 115.64 26.7 115.64 26.69C115.63 26.64 115.61 26.59 115.59 26.55C115.52 26.35 115.43 26.2 115.34 26.11C114.46 25.31 114.33 24.56 114.33 24.56V20.4C114.33 20.27 114.3 20.16 114.23 20.06C114.4 18.63 114.4 15.43 114.08 14.51C113.93 14.09 113.56 13.82 113.14 13.65C113.19 13.57 113.13 13.51 113.13 13.51C112.79 13.32 112.52 13.18 112.3 13.08C111.21 12.6 111.11 13 107.99 11.73C104.23 10.2 100.86 6.72996 100.86 6.72996C100.86 6.72996 104.94 5.01999 105.22 4.18999C105.25 4.09999 105.24 4.03001 105.18 3.96001C104.85 3.62001 101.12 3.13998 95.82 2.74998C96.5 1.72998 95.75 0.83998 95.75 0.83998C93.55 0.72998 92.44 1.94998 92.05 2.49998C87.38 2.22998 81.98 2.03999 76.76 2.03999C63.46 2.03999 58.63 2.52998 55.55 2.96998C52.47 3.40998 42.09 7.48996 37.99 10.73C33.89 13.97 29.02 15.47 28.31 15.78C27.59 16.09 21.69 16.77 14.2 18.12C6.71001 19.47 3.72 21.86 3.72 21.86C3.72 21.86 1.60999 23.81 0.679993 28.63C0.549993 29.28 0.480002 29.88 0.440002 30.42C0.430002 30.56 0.420013 30.7 0.420013 30.83C0.420013 30.85 0.420013 30.86 0.420013 30.88C0.420013 31.01 0.410004 31.14 0.410004 31.26C0.410004 31.51 0.420002 31.75 0.440002 31.98V31.99C0.440002 32 0.440002 32 0.440002 32.01C0.450002 32.09 0.449991 32.16 0.459991 32.24V32.25V32.26C0.499991 32.67 0.569994 33.04 0.649994 33.36C0.649994 33.36 0.649994 33.36 0.649994 33.37L0.660004 33.4C0.660004 33.41 0.660004 33.41 0.660004 33.42C0.750004 33.76 0.849991 34.06 0.959991 34.31C0.959991 34.31 0.959991 34.31 0.959991 34.32C1.23999 34.98 1.56001 35.38 1.70001 35.61C1.70001 35.62 1.70999 35.63 1.70999 35.63H1.70001C1.64001 35.63 1.60001 35.69 1.60001 35.75C1.60001 35.81 1.65001 35.87 1.70001 35.87H1.79999V35.88C1.79999 35.89 1.79999 35.89 1.79999 35.9C1.79999 35.92 1.79999 35.95 1.79999 35.97C1.79999 35.98 1.79999 35.98 1.79999 35.99C1.79999 36.01 1.79001 36.04 1.79001 36.06C1.79001 36.07 1.79001 36.07 1.79001 36.08C1.79001 36.09 1.79 36.09 1.78 36.1C1.78 36.11 1.76999 36.12 1.76999 36.13C1.75999 36.15 1.76 36.18 1.75 36.2V36.21C1.74 36.22 1.74001 36.24 1.73001 36.25C1.69001 36.33 1.65 36.4 1.59 36.47C1.59 36.47 1.59 36.47 1.59 36.48C1.58 36.5 1.55999 36.51 1.54999 36.53C1.54999 36.53 1.55001 36.53 1.54001 36.54C1.52001 36.56 1.50999 36.58 1.48999 36.59C1.46999 36.61 1.46001 36.62 1.45001 36.64C1.42001 36.67 1.38999 36.7 1.35999 36.72C1.34999 36.73 1.33999 36.74 1.32999 36.75C1.29999 36.78 1.28 36.79 1.28 36.79C0.929999 37 0.730005 37.19 0.630005 37.34C0.490005 37.53 0.5 37.65 0.5 37.65C0.5 37.68 0.50001 37.71 0.51001 37.74C0.51001 37.74 0.51001 37.74 0.51001 37.75C0.51001 37.76 0.51001 37.76 0.51001 37.77C0.51001 37.79 0.519989 37.8 0.519989 37.82C0.519989 37.83 0.529999 37.84 0.529999 37.84C0.539999 37.86 0.539988 37.87 0.549988 37.89C0.559988 37.9 0.570007 37.91 0.570007 37.93C0.580007 37.95 0.589985 37.96 0.609985 37.98C0.619985 37.99 0.630005 38 0.630005 38.01C0.640005 38.02 0.650004 38.03 0.660004 38.04L0.670013 38.05C0.680013 38.06 0.689991 38.07 0.709991 38.08C0.719991 38.09 0.730011 38.09 0.730011 38.1C0.730011 38.1 0.72999 38.1 0.73999 38.11C0.75999 38.13 0.779998 38.15 0.809998 38.17C0.819998 38.18 0.829996 38.19 0.839996 38.19C0.859996 38.2 0.870015 38.21 0.890015 38.23C0.900015 38.24 0.919993 38.25 0.929993 38.26C0.949993 38.28 0.98 38.29 1 38.31C1.01 38.31 1.00999 38.32 1.01999 38.32L1.03 38.33C1.04 38.34 1.06001 38.35 1.07001 38.36C1.18001 38.43 1.31001 38.49 1.45001 38.55C1.46001 38.56 1.46999 38.56 1.48999 38.57C1.49999 38.58 1.50999 38.58 1.51999 38.58C1.53999 38.59 1.55001 38.59 1.57001 38.6C1.62001 38.62 1.67001 38.64 1.73001 38.67C1.76001 38.68 1.79001 38.69 1.82001 38.7C3.82001 39.48 7.55 40.11 9.44 40.4C9.48 40.41 9.50999 40.41 9.54999 40.42C9.58999 40.43 9.62 40.43 9.66 40.44C9.74 40.45 9.81 40.46 9.88 40.47C10.33 40.54 10.6 40.57 10.6 40.57C10.97 40.63 11.77 40.47 12.45 40.33C13.95 43.99 17.55 46.56 21.75 46.56C25.11 46.56 28.09 44.9 29.91 42.37C30.92 41.92 32.45 41.11 33.37 40.06H33.44L34.73 40.04L81.23 39.33L82.81 39.31C82.81 39.31 84 39.34 84.98 39.22C86.5 42.84 90.08 45.38 94.25 45.38C99.05 45.38 103.06 42.01 104.06 37.51C104.6 37.56 105.22 37.57 105.64 37.45V37.46C105.65 37.46 105.66 37.45 105.67 37.45C105.67 37.45 105.67 37.45 105.68 37.45C105.8 37.41 105.9 37.37 105.97 37.31C106.03 37.28 106.1 37.26 106.17 37.23C106.2 37.22 106.23 37.21 106.26 37.2C106.29 37.19 106.32 37.18 106.35 37.17C106.39 37.15 106.44 37.14 106.49 37.12C106.53 37.11 106.57 37.09 106.62 37.08C106.64 37.07 106.67 37.06 106.69 37.06C106.73 37.05 106.77 37.03 106.82 37.02C106.84 37.01 106.86 37.01 106.89 37C106.91 36.99 106.93 36.99 106.94 36.98C106.98 36.97 107.02 36.96 107.06 36.94C107.13 36.92 107.19 36.9 107.26 36.88C107.29 36.87 107.32 36.86 107.35 36.85C107.51 36.8 107.68 36.75 107.85 36.71C107.88 36.7 107.92 36.69 107.95 36.68C107.98 36.67 108.02 36.66 108.05 36.65C108.08 36.64 108.12 36.63 108.15 36.62C108.32 36.57 108.5 36.53 108.67 36.48C108.74 36.46 108.8 36.45 108.87 36.43C109.05 36.38 109.23 36.34 109.41 36.29C109.48 36.27 109.55 36.25 109.62 36.24C109.63 36.24 109.65 36.23 109.66 36.23C109.71 36.22 109.76 36.21 109.81 36.19C110 36.14 110.19 36.1 110.36 36.05C110.79 35.95 111.16 35.86 111.41 35.8C112.61 35.51 114.7 33.21 115.35 32.94L115.36 32.93C115.37 32.93 115.37 32.92 115.38 32.92C115.38 32.92 115.39 32.92 115.39 32.91C115.4 32.9 115.41 32.9 115.41 32.89C115.42 32.88 115.43 32.86 115.44 32.85C115.45 32.84 115.45 32.83 115.46 32.82C115.47 32.81 115.47 32.8 115.48 32.78C115.49 32.76 115.5 32.73 115.52 32.71V32.7C115.52 32.7 115.52 32.7 115.52 32.69C115.69 32.31 115.82 31.52 115.88 30.61C115.86 30.59 115.86 30.59 115.87 30.59ZM94.39 6.46001C94.46 6.51001 94.53 6.55996 94.59 6.59996C94.78 6.73996 94.95 6.86998 95.11 6.99998C95.12 6.99998 95.12 7.00999 95.13 7.00999C95.18 7.04999 95.23 7.08999 95.28 7.12999C95.3 7.13999 95.31 7.15997 95.32 7.16997C95.36 7.19997 95.39 7.24 95.43 7.27C95.44 7.28 95.44 7.27996 95.45 7.28996C95.49 7.32996 95.53 7.36001 95.56 7.40001C95.57 7.41001 95.58 7.41998 95.59 7.42998C95.65 7.48998 95.72 7.55998 95.77 7.61998C95.78 7.62998 95.78 7.63 95.79 7.64C95.85 7.7 95.9 7.75999 95.95 7.81999L95.96 7.83C96.01 7.89 96.05 7.93998 96.1 7.99998L96.11 8.00999C96.15 8.06999 96.19 8.11998 96.23 8.17998C96.24 8.18998 96.24 8.19 96.24 8.2C96.28 8.25 96.31 8.30997 96.34 8.35997C96.37 8.40997 96.4 8.45999 96.43 8.50999C96.43 8.51999 96.44 8.53001 96.44 8.53001C96.49 8.63001 96.53 8.71998 96.57 8.80998C96.57 8.81998 96.58 8.83 96.58 8.83C96.6 8.87 96.61 8.92 96.63 8.96V8.96995C96.64 9.00995 96.65 9.05 96.66 9.08C96.66 9.09 96.66 9.08996 96.67 9.09996C96.68 9.13996 96.69 9.17 96.69 9.21C96.69 9.22 96.69 9.21996 96.69 9.22996C96.7 9.25996 96.7 9.28999 96.7 9.31999C96.7 9.32999 96.7 9.33001 96.7 9.34001C96.7 9.37001 96.71 9.39998 96.71 9.42998C96.71 9.43998 96.71 9.44 96.71 9.45C96.71 9.48 96.71 9.51001 96.71 9.53001C96.71 9.53001 96.71 9.52996 96.71 9.53996C96.71 9.56996 96.71 9.59998 96.71 9.61998V9.62999C96.71 9.65999 96.71 9.68 96.7 9.7C96.45 9.91 96.15 10.15 95.82 10.39C95.67 10.5 95.5 10.61 95.33 10.72C95.2 10.81 95.06 10.9 94.91 10.99C94.77 11.08 94.62 11.16 94.47 11.25C94.17 11.42 93.87 11.58 93.55 11.73C93.43 11.79 93.3 11.85 93.18 11.9C92.55 12.17 91.92 12.38 91.33 12.46C90.9 12.52 90.03 12.63 88.87 12.76L89.12 12.72L85.76 4.47996C86.13 4.47996 87.06 4.47997 87.9 4.54997C88.98 4.65997 91.73 4.64001 94.39 6.46001ZM60.28 15.67L63.03 15.42V15.43L58.5 15.84L52.97 16.32L42.58 17.09C42.59 17.07 42.61 17.06 42.62 17.04C42.64 17.02 42.66 17 42.67 16.98C42.68 16.97 42.69 16.96 42.7 16.95C42.71 16.94 42.72 16.93 42.73 16.91C42.75 16.89 42.76 16.86 42.78 16.84C42.79 16.82 42.81 16.8 42.82 16.78C42.82 16.77 42.83 16.77 42.83 16.76C42.84 16.74 42.85 16.71 42.86 16.69C42.87 16.67 42.88 16.65 42.89 16.62V16.61C42.9 16.6 42.9 16.59 42.9 16.57C42.91 16.53 42.93 16.5 42.94 16.46C42.94 16.44 42.95 16.43 42.95 16.41C42.96 16.38 42.97 16.35 42.97 16.32C42.97 16.3 42.98 16.29 42.98 16.27C42.99 16.24 42.99 16.21 42.99 16.18C42.99 16.17 42.99 16.15 43 16.14C43 16.12 43 16.11 43 16.09C43.01 16.02 43.01 15.94 43.01 15.87C43.01 15.56 42.96 15.32 42.95 15.27C42.92 15.13 42.48 12.92 40.09 13.39C40.02 13.4 39.96 13.42 39.9 13.44C39.88 13.44 39.87 13.45 39.85 13.45C39.8 13.46 39.75 13.48 39.7 13.5C39.69 13.5 39.67 13.51 39.66 13.51C39.6 13.53 39.55 13.56 39.5 13.58C39.5 13.58 39.49 13.58 39.49 13.59C39.49 13.59 39.49 13.59 39.48 13.59C39.46 13.6 39.44 13.61 39.43 13.62C39.4 13.63 39.38 13.65 39.36 13.66C39.33 13.67 39.31 13.69 39.28 13.7C39.25 13.72 39.22 13.74 39.19 13.76C39.16 13.78 39.13 13.8 39.1 13.82C39.09 13.83 39.08 13.83 39.07 13.84C39.04 13.86 39.02 13.88 38.99 13.9C38.98 13.91 38.98 13.91 38.97 13.92C38.97 13.92 38.96 13.92 38.96 13.93C38.94 13.94 38.93 13.96 38.91 13.97C38.89 13.99 38.86 14.01 38.83 14.04L38.82 14.05C38.81 14.06 38.8 14.07 38.78 14.08C38.77 14.09 38.76 14.1 38.75 14.11C38.73 14.13 38.7 14.16 38.68 14.18C38.67 14.19 38.67 14.19 38.66 14.2C38.65 14.21 38.63 14.23 38.62 14.24C38.61 14.25 38.59 14.27 38.58 14.28C38.57 14.29 38.57 14.3 38.56 14.3C38.52 14.35 38.47 14.4 38.43 14.45C38.42 14.46 38.42 14.47 38.41 14.47C38.4 14.48 38.4 14.48 38.39 14.49C38.38 14.5 38.37 14.51 38.36 14.52C38.35 14.53 38.35 14.54 38.34 14.54C38.33 14.55 38.32 14.57 38.31 14.58C38.28 14.62 38.24 14.67 38.21 14.72C38.2 14.74 38.18 14.76 38.17 14.78C38.14 14.82 38.11 14.87 38.08 14.91C38.07 14.92 38.06 14.94 38.05 14.95C38.04 14.96 38.04 14.97 38.03 14.98C37.98 15.06 37.94 15.13 37.9 15.21C37.9 15.22 37.89 15.23 37.89 15.24C37.86 15.29 37.83 15.35 37.81 15.4C37.8 15.42 37.79 15.44 37.78 15.46C37.78 15.46 37.78 15.47 37.77 15.47C37.75 15.51 37.74 15.54 37.72 15.58C37.71 15.61 37.7 15.63 37.68 15.66C37.6 15.83 37.54 16 37.48 16.17C37.48 16.18 37.47 16.19 37.47 16.21C37.45 16.27 37.43 16.34 37.41 16.4C37.4 16.42 37.4 16.43 37.39 16.45C37.38 16.5 37.36 16.54 37.35 16.58C37.34 16.6 37.34 16.61 37.33 16.63C37.31 16.68 37.3 16.73 37.29 16.78C37.29 16.78 37.29 16.78 37.29 16.79C37.28 16.82 37.27 16.85 37.27 16.87C37.27 16.88 37.27 16.89 37.26 16.9C37.25 16.92 37.25 16.94 37.24 16.96C37.24 16.97 37.24 16.97 37.23 16.98C37.21 17.06 37.19 17.13 37.18 17.2C37.14 17.38 37.12 17.5 37.11 17.54L35.72 17.65V17.64L36.71 14.46C36.71 14.46 44.1 9.34999 46.21 8.50999C48.19 7.72999 53.13 5.1 62.81 4.95L60.28 15.67ZM88.14 12.84C86.54 13.02 84.55 13.32 82.48 13.44L83.01 4.53001H83.02C83.76 4.54001 84.52 4.55 85.28 4.58L88.14 12.84ZM82.54 4.50999L81.95 13.52V13.53V13.54C79.05 13.85 76.08 14.17 73.94 14.39C73.85 14.4 73.75 14.41 73.66 14.42C71.97 14.6 70.86 14.71 70.81 14.72L63.31 15.4V15.39L66.06 15.14V4.87999C68.63 4.73999 74.96 4.41999 82.54 4.50999Z" fill="white"/>
</svg>
