<svg width="127" height="49" viewBox="0 0 127 49" fill="none" xmlns="http://www.w3.org/2000/svg">
<path d="M55.74 24.13L117.95 23.02L123.63 6.66998L120.3 2.65997L56.3 1.96002L55.74 24.13Z" fill="black"/>
<path d="M125.71 36.74C125.71 36.74 126.32 25.99 126.32 25.1C126.32 24.22 125.7 23.7 125.7 23.7H123.78L123.99 13.72L125.7 11.59C125.7 11.59 125.3 6.25999 124.61 4.17999C123.92 2.09999 121.84 1.54999 121.84 1.54999L47.58 0.859985C47.58 0.859985 46.42 0.859998 43.67 1.31C36.11 2.55 22.68 13.42 22.68 13.42C22.68 13.42 20.86 14.67 19.41 15.08C12.81 16.97 6.99 19.18 6.99 19.18L4.55 21.26C4.55 21.26 5.23 21.16 6.94 20.22C8.65 19.28 15.93 17 15.62 17.73C15.31 18.46 11.15 21.68 10.16 22.61C9.17 23.55 10.73 25.83 10.73 25.83L10.16 25.99L3.46 27.08L2.11 27.24C2.11 27.24 2.11 27.6 1.75 28.75C1.39 29.89 1.18 32.44 1.18 32.44L0.919996 33.17C0.349996 34.88 1.91 37.38 1.91 37.38L1.39 38C1.39 38 1.29 38.68 1.39 39.66C1.49 40.65 3.78 40.65 3.78 40.65C4.2 41.9 10.6 42.3 10.6 42.3V41.61L11.7 41.12C12.4 45.14 15.91 48.19 20.12 48.19C24.54 48.19 28.17 44.84 28.63 40.55L30.27 40.5V41.61H96.63C97.31 45.66 100.82 48.75 105.07 48.75C109.32 48.75 112.83 45.66 113.51 41.61H114.1L126.85 39.67V36.76H125.71V36.74ZM31.18 18.61C28.74 17.99 29.52 12.32 29.88 11.57C30.24 10.82 39.28 5.62 39.28 5.62L37.15 17.83L31.18 18.61ZM50.61 13.67C50.14 15.54 48.48 15.96 48.48 15.96L37.93 17.67L40.37 5.03998C40.37 5.03998 42.03 4.57001 43.7 4.26001C45.36 3.95001 48.12 3.78998 49.83 3.84998C51.54 3.90998 52.01 5.09003 52.01 5.09003C52.01 5.09003 51.08 11.8 50.61 13.67ZM84.07 18.68C73.59 19 64.33 19.28 63.79 19.28C62.52 19.28 61.73 18.86 59.55 17.1C57.37 15.33 57.47 14.71 57.47 14.71V4.94C57.47 3.59 59.65 3.90002 59.65 3.90002C59.65 3.90002 71.25 3.87999 84.07 3.85999V18.68ZM119.61 12.11C119.19 16.27 114.73 17.72 114.73 17.72C114.73 17.72 101.67 18.13 88.77 18.53V3.85999C102.18 3.84999 115.53 3.85002 117.33 3.90002C121.07 4.01002 120.03 7.95999 119.61 12.11Z" fill="white"/>
</svg>
