<?xml version="1.0" encoding="UTF-8" standalone="no"?>
<!-- Created with Inkscape (http://www.inkscape.org/) -->

<svg
   width="297mm"
   height="100mm"
   viewBox="0 0 297 100"
   version="1.1"
   id="svg1649"
   inkscape:version="1.1.1 (3bf5ae0d25, 2021-09-20)"
   sodipodi:docname="logo_white.svg"
   xmlns:inkscape="http://www.inkscape.org/namespaces/inkscape"
   xmlns:sodipodi="http://sodipodi.sourceforge.net/DTD/sodipodi-0.dtd"
   xmlns="http://www.w3.org/2000/svg"
   xmlns:svg="http://www.w3.org/2000/svg">
  <sodipodi:namedview
     id="namedview1651"
     pagecolor="#ffffff"
     bordercolor="#666666"
     borderopacity="1.0"
     inkscape:pageshadow="2"
     inkscape:pageopacity="0.0"
     inkscape:pagecheckerboard="0"
     inkscape:document-units="mm"
     showgrid="false"
     inkscape:zoom="0.71446409"
     inkscape:cx="586.45355"
     inkscape:cy="368.8079"
     inkscape:window-width="1920"
     inkscape:window-height="991"
     inkscape:window-x="-9"
     inkscape:window-y="-9"
     inkscape:window-maximized="1"
     inkscape:current-layer="layer1" />
  <defs
     id="defs1646" />
  <g
     inkscape:label="Calque 1"
     inkscape:groupmode="layer"
     id="layer1">
    <g
       id="g1026"
       transform="matrix(0.89018066,0,0,-0.89018066,72.041769,33.703352)">
      <path
         d="m 0,0 h -33.546 l 31.462,-8.912 c -4.972,-16.326 -15.925,-30.909 -31.453,-41.413 -9.254,6.254 -16.881,13.956 -22.591,22.612 l 22.591,-0.002 -27.01,7.65 c -4.811,9.609 -7.421,20.108 -7.469,30.942 10.541,3.772 21.713,5.684 33.287,5.684 12.463,0 24.43,-2.202 35.644,-6.553 C 0.856,6.632 0.543,3.291 0,0 m 9.862,15.043 c -13.358,6.039 -28.519,9.451 -44.591,9.451 -15.104,0 -29.408,-3.014 -42.169,-8.403 -0.102,-1.622 -0.158,-3.265 -0.158,-4.903 0,-29.747 17.289,-55.944 43.521,-71.267 26.221,15.332 43.499,41.53 43.499,71.267 0,1.294 -0.033,2.582 -0.102,3.855"
         style="fill:#ffffff;fill-opacity:1;fill-rule:nonzero;stroke:none"
         id="path1028" />
    </g>
    <g
       id="g1030"
       transform="matrix(0.89018066,0,0,-0.89018066,119.0596,31.672233)">
      <path
         d="m 0,0 h -12.77 c -6.73,0 -7.919,1.22 -7.919,4.84 0,5.009 2.949,5.439 11.269,5.439 h 4.57 c 11.321,0 11.84,-0.89 11.93,-5.73 h 4.051 V 5.6 c 0,5.429 -2.681,8.049 -13.381,8.049 h -9.289 c -8.891,0 -13.201,-1.56 -13.201,-8.509 0,-8.091 4.31,-8.85 17.47,-8.85 h 8.19 c 5.371,0 6.961,-0.97 6.961,-4.799 0,-4.381 -1.851,-5.65 -8.101,-5.65 h -13.389 c -5.37,0 -7.041,1.439 -7.041,4.429 v 2.141 h -4.049 V -9.82 c 0,-6.65 5.549,-7.709 11.84,-7.709 H -0.88 c 6.38,0 12.81,0.55 12.81,8.049 V -7.5 C 11.93,-2.32 8.4,0 0,0"
         style="fill:#ffffff;fill-opacity:1;fill-rule:nonzero;stroke:none"
         id="path1032" />
    </g>
    <g
       id="g1034"
       transform="matrix(0.89018066,0,0,-0.89018066,166.96064,38.499374)">
      <path
         d="m 0,0 c 0,-5.31 -3.12,-6.49 -6.99,-6.49 h -16.311 c -3.869,0 -6.989,1.18 -6.989,6.49 v 11.458 c 0,5.311 3.12,6.49 6.989,6.49 H -6.99 c 3.87,0 6.99,-1.179 6.99,-6.49 z m -6.57,21.318 h -17.151 c -8.049,0 -10.599,-3.71 -10.599,-11.419 V 1.56 c 0,-7.71 2.55,-11.42 10.599,-11.42 H -6.57 c 8.05,0 10.599,3.71 10.599,11.42 v 8.339 c 0,7.709 -2.549,11.419 -10.599,11.419"
         style="fill:#ffffff;fill-opacity:1;fill-rule:nonzero;stroke:none"
         id="path1036" />
    </g>
    <g
       id="g1038"
       transform="matrix(0.89018066,0,0,-0.89018066,180.44726,43.973907)">
      <path
         d="M 0,0 V 27.128 H -4.311 V -3.37 h 29.05 V 0 Z"
         style="fill:#ffffff;fill-opacity:1;fill-rule:nonzero;stroke:none"
         id="path1040" />
    </g>
    <g
       id="g1042"
       transform="matrix(0.89018066,0,0,-0.89018066,220.77137,38.233388)">
      <path
         d="M 0,0 10.701,17.31 21.391,0 Z M 13.381,20.68 H 8.011 L -10.92,-9.819 h 4.891 l 3.96,6.45 h 25.53 l 3.959,-6.45 h 4.891 z"
         style="fill:#ffffff;fill-opacity:1;fill-rule:nonzero;stroke:none"
         id="path1044" />
    </g>
    <g
       id="g1046"
       transform="matrix(0.89018066,0,0,-0.89018066,282.30162,33.248282)">
      <path
         d="m 0,0 h -23.58 v 11.709 h 22.379 c 7.221,0 8.98,-1.099 8.98,-4.509 V 4.42 C 7.779,1.22 5.469,0 0,0 m 12.689,3.96 v 2.48 c 0,5.729 -1.65,8.64 -12.129,8.64 h -29.05 v -30.499 h 4.91 V -3.37 H 0.399 c 4.04,0 6.691,-0.48 7.161,-4.099 l 4.239,2.289 C 11.09,-3.6 9.439,-2.419 6.02,-1.899 v 0.09 c 3.769,0.289 6.669,1.47 6.669,5.769 M 12.069,-6 7.629,-8.54 v -6.879 h 4.621 v 7.79 c 0,0.57 -0.051,1.12 -0.181,1.629"
         style="fill:#ffffff;fill-opacity:1;fill-rule:nonzero;stroke:none"
         id="path1048" />
    </g>
    <g
       id="g1050"
       transform="matrix(0.89018066,0,0,-0.89018066,115.37451,61.599284)">
      <path
         d="m 0,0 c -10.011,-0.049 -11.14,0.041 -11.14,2.69 0,1.64 1.43,2.36 3.53,2.36 H 2.729 c 4.292,0 4.542,-0.929 4.542,-3.16 h 9.339 v 0.971 c 0,5.349 -1.009,9.019 -11.78,9.019 H -8.2 c -11.779,0 -12.279,-4.259 -12.279,-9.78 0,-7.499 1.599,-9.179 15.639,-9.179 12.03,0 13.12,-0.17 13.12,-2.82 0,-2.36 -2.02,-2.57 -3.99,-2.57 H -7.149 c -2.691,0 -3.991,0.25 -4.041,3.49 h -9.331 v -2.1 c 0,-6.62 3.401,-8.22 11.901,-8.22 H 2.69 c 12.4,0 15.18,1.35 15.18,9.57 C 17.87,-0.85 14.51,0.041 0,0"
         style="fill:#ffffff;fill-opacity:1;fill-rule:nonzero;stroke:none"
         id="path1052" />
    </g>
    <g
       id="g1054"
       transform="matrix(0.89018066,0,0,-0.89018066,162.23337,51.326163)">
      <path
         d="M 0,0 V -10.871 H -19.68 V 0 h -9.33 v -30.499 h 9.33 v 11.54 H 0 v -11.54 H 9.34 V 0 Z"
         style="fill:#ffffff;fill-opacity:1;fill-rule:nonzero;stroke:none"
         id="path1056" />
    </g>
    <path
       d="m 176.61031,78.4756 h 8.31428 V 51.325981 h -8.31428 z"
       style="fill:#ffffff;fill-opacity:1;fill-rule:nonzero;stroke:none;stroke-width:0.890181"
       id="path1058" />
    <g
       id="g1060"
       transform="matrix(0.89018066,0,0,-0.89018066,199.29231,71.950669)">
      <path
         d="m 0,0 v 4.889 h 22.709 v 6.31 H 0 v 4.89 h 23.969 v 7.08 H -9.33 V -7.33 h 29.859 l 3.991,2.159 V 0 Z"
         style="fill:#ffffff;fill-opacity:1;fill-rule:nonzero;stroke:none"
         id="path1062" />
    </g>
    <g
       id="g1064"
       transform="matrix(0.89018066,0,0,-0.89018066,241.22818,78.475348)">
      <path
         d="m 0,0 h 13.359 v 7.669 z m -6.66,7.839 -10.3,-5.87 V 0 h 13.74 l 14.64,7.839 z m -10.3,22.66 v -25.3 l 9.34,5.04 v 20.26 z"
         style="fill:#ffffff;fill-opacity:1;fill-rule:nonzero;stroke:none"
         id="path1066" />
    </g>
    <g
       id="g1068"
       transform="matrix(0.89018066,0,0,-0.89018066,265.25431,71.496943)">
      <path
         d="M 0,0 V 7.65 L -9.34,2.29 V -7.839 h 3.3 L 8.6,0 Z M 18.83,22.659 H 6.119 L -9.34,13.849 V 3.339 l 9.34,5 v 6.74 h 12.59 l 5.23,2.8 -4.881,-2.8 h 3.622 c 4,0 5.548,-1.141 5.548,-5.48 V 5.469 C 22.109,1.13 20.561,0 16.561,0 h -7.5 L -4.59,-7.839 h 23.42 c 9.34,0 12.619,3.079 12.619,10.609 v 9.269 c 0,7.54 -3.279,10.62 -12.619,10.62 m -28.17,0 v -6.621 l 12.26,6.621 z"
         style="fill:#ffffff;fill-opacity:1;fill-rule:nonzero;stroke:none"
         id="path1070" />
    </g>
  </g>
</svg>
