<?xml version="1.0" encoding="UTF-8"?>
<!-- Created with Inkscape (http://www.inkscape.org/) -->
<svg width="297mm" height="100mm" version="1.1" viewBox="0 0 297 100" xmlns="http://www.w3.org/2000/svg">
 <defs>
  <linearGradient id="linearGradient91132" x2="1" gradientTransform="matrix(41.832 72.455 72.455 -41.832 500.53 230.14)" gradientUnits="userSpaceOnUse">
   <stop stop-color="#a47343" offset="0"/>
   <stop stop-color="#d79f23" offset=".454"/>
   <stop stop-color="#f2ef1d" offset="1"/>
  </linearGradient>
  <clipPath id="clipPath91142">
   <path d="M 0,595.28 H 841.89 V 0 H 0 Z"/>
  </clipPath>
  <linearGradient id="linearGradient91166" x2="1" gradientTransform="matrix(43.825 -75.907 -75.907 -43.825 510.48 304.68)" gradientUnits="userSpaceOnUse">
   <stop stop-color="#a47343" offset="0"/>
   <stop stop-color="#d79f23" offset=".454"/>
   <stop stop-color="#f2ef1d" offset="1"/>
  </linearGradient>
 </defs>
 <g transform="matrix(.87996 0 0 -.87996 -420.06 274.25)">
  <path d="m485.17 288.21c-0.068-1.318-0.102-2.621-0.102-3.881 0-27.901 15.691-53.832 42.02-69.528 26.317 15.703 42 41.634 42 69.528 0 0.963-0.019 1.922-0.057 2.862-13.443 5.936-27.951 8.945-43.136 8.945-14.256 0-27.951-2.666-40.725-7.926" fill="url(#linearGradient91132)"/>
  <g clip-path="url(#clipPath91142)">
   <g transform="translate(525.9 297.64)">
    <path d="m0 0c-15.104 0-29.407-3.014-42.169-8.403-0.102-1.622-0.157-3.265-0.157-4.904 0-29.748 17.289-55.946 43.52-71.27 26.221 15.333 43.499 41.532 43.499 71.27 0 1.295-0.033 2.582-0.101 3.856-13.359 6.039-28.52 9.451-44.592 9.451m0-3c14.652 0 28.66-2.839 41.669-8.44 0.017-0.618 0.024-1.242 0.024-1.867 0-27.088-15.105-52.303-40.5-67.777-25.406 15.467-40.519 40.683-40.519 67.777 0 0.932 0.019 1.886 0.056 2.853 12.338 4.947 25.54 7.454 39.27 7.454" fill="#fff"/>
   </g>
  </g>
  <path d="m483.73 289.24c-0.101-1.623-0.156-3.266-0.156-4.904 0-29.748 17.289-55.946 43.52-71.271 26.221 15.334 43.499 41.533 43.499 71.271 0 1.295-0.033 2.582-0.102 3.855-13.359 6.039-28.519 9.452-44.591 9.452-15.104 0-29.408-3.014-42.17-8.403m16.352-36.159c-4.812 9.61-7.421 20.11-7.469 30.945 10.541 3.772 21.713 5.683 33.287 5.683 12.463 0 24.43-2.201 35.644-6.552-0.058-3.376-0.372-6.718-0.915-10.009h-33.546l31.462-8.912c-4.972-16.328-15.925-30.912-31.454-41.415-9.253 6.254-16.88 13.957-22.59 22.613l22.59-2e-3z" fill="url(#linearGradient91166)"/>
 </g>
 <g transform="matrix(.87996 0 0 -.87996 119.75 31.883)">
  <path d="m0 0h-12.77c-6.73 0-7.919 1.22-7.919 4.84 0 5.01 2.949 5.439 11.269 5.439h4.57c11.321 0 11.84-0.889 11.93-5.73h4.051v1.051c0 5.429-2.681 8.049-13.381 8.049h-9.289c-8.891 0-13.201-1.559-13.201-8.509 0-8.091 4.31-8.851 17.47-8.851h8.19c5.371 0 6.961-0.97 6.961-4.799 0-4.381-1.851-5.65-8.101-5.65h-13.389c-5.37 0-7.041 1.439-7.041 4.43v2.14h-4.049v-2.23c0-6.651 5.549-7.71 11.84-7.71h11.979c6.38 0 12.81 0.55 12.81 8.05v1.98c0 5.18-3.53 7.5-11.93 7.5" fill="#fff"/>
 </g>
 <g transform="matrix(.87996 0 0 -.87996 167.1 38.632)">
  <path d="m0 0c0-5.311-3.12-6.49-6.99-6.49h-16.311c-3.869 0-6.989 1.179-6.989 6.49v11.459c0 5.311 3.12 6.49 6.989 6.49h16.311c3.87 0 6.99-1.179 6.99-6.49zm-6.57 21.319h-17.151c-8.049 0-10.599-3.71-10.599-11.42v-8.339c0-7.71 2.55-11.42 10.599-11.42h17.151c8.05 0 10.599 3.71 10.599 11.42v8.339c0 7.71-2.549 11.42-10.599 11.42" fill="#fff"/>
 </g>
 <g transform="matrix(.87996 0 0 -.87996 180.43 44.045)">
  <path d="m0 0v27.13h-4.311v-30.5h29.05v3.37z" fill="#fff"/>
 </g>
 <g transform="matrix(.87996 0 0 -.87996 220.29 38.369)">
  <path d="m0 0 10.701 17.311 10.69-17.311zm13.381 20.681h-5.37l-18.931-30.5h4.891l3.96 6.45h25.53l3.959-6.45h4.891z" fill="#fff"/>
 </g>
 <g transform="matrix(.87996 0 0 -.87996 281.11 33.441)">
  <path d="m0 0h-23.58v11.71h22.379c7.221 0 8.98-1.1 8.98-4.51v-2.78c0-3.2-2.31-4.42-7.779-4.42m12.689 3.96v2.48c0 5.73-1.65 8.64-12.129 8.64h-29.05v-30.5h4.91v12.05h23.979c4.04 0 6.691-0.481 7.161-4.1l4.239 2.289c-0.709 1.58-2.36 2.761-5.779 3.282v0.089c3.769 0.289 6.669 1.47 6.669 5.77m-0.62-9.96-4.44-2.54v-6.88h4.621v7.79c0 0.57-0.051 1.12-0.181 1.63" fill="#fff"/>
 </g>
 <g transform="matrix(.87996 0 0 -.87996 116.1 61.468)">
  <path d="m0 0c-10.011-0.049-11.14 0.041-11.14 2.69 0 1.64 1.43 2.361 3.53 2.361h10.339c4.292 0 4.542-0.93 4.542-3.16h9.339v0.97c0 5.35-1.009 9.02-11.78 9.02h-13.03c-11.779 0-12.279-4.26-12.279-9.78 0-7.5 1.599-9.18 15.639-9.18 12.03 0 13.12-0.17 13.12-2.82 0-2.361-2.02-2.571-3.99-2.571h-11.439c-2.691 0-3.991 0.25-4.041 3.491h-9.331v-2.1c0-6.62 3.401-8.221 11.901-8.221h11.31c12.4 0 15.18 1.351 15.18 9.571 0 8.879-3.36 9.77-17.87 9.729" fill="#fff"/>
 </g>
 <g transform="matrix(.87996 0 0 -.87996 162.42 51.313)">
  <path d="m0 0v-10.871h-19.68v10.871h-9.33v-30.5h9.33v11.54h19.68v-11.54h9.34v30.5z" fill="#fff"/>
 </g>
 <path d="m176.64 78.151h8.2188v-26.839h-8.2188z" fill="#fff"/>
 <g transform="matrix(.87996 0 0 -.87996 240.51 78.151)">
  <path d="m0 0h13.359v7.67zm-6.66 7.84-10.3-5.87v-1.97h13.74l14.64 7.84zm-10.3 22.66v-25.301l9.34 5.04v20.261z" fill="#fff"/>
 </g>
 <g transform="matrix(.87996 0 0 -.87996 264.26 71.253)">
  <path d="m0 0v7.65l-9.34-5.36v-10.13h3.3l14.64 7.84zm18.83 22.66h-12.711l-15.459-8.81v-10.51l9.34 5v6.74h12.59l5.23 2.8-4.881-2.8h3.622c4 0 5.548-1.141 5.548-5.48v-4.13c0-4.34-1.548-5.47-5.548-5.47h-7.5l-13.651-7.84h23.42c9.34 0 12.619 3.08 12.619 10.61v9.269c0 7.541-3.279 10.621-12.619 10.621m-28.17 0v-6.621l12.26 6.621z" fill="#fff"/>
 </g>
 <path d="m199.06 71.701v-4.303h19.983v-5.5517h-19.983v-4.3038h21.092v-6.2301h-29.302v26.839h26.275l3.5119-1.8998v-4.5502z" fill="#fff"/>
</svg>
