<?xml version="1.0" standalone="no"?>
<!DOCTYPE svg PUBLIC "-//W3C//DTD SVG 20010904//EN"
 "http://www.w3.org/TR/2001/REC-SVG-20010904/DTD/svg10.dtd">
<svg version="1.0" xmlns="http://www.w3.org/2000/svg"
 width="700.000000pt" height="700.000000pt" viewBox="0 0 700.000000 700.000000"
 preserveAspectRatio="xMidYMid meet">
<metadata>
Created by potrace 1.14, written by Peter Selinger 2001-2017
</metadata>
<g transform="translate(0.000000,700.000000) scale(0.100000,-0.100000)"
fill="#000000" stroke="none">
<path d="M3159 6496 c-2 -2 -73 -7 -157 -10 -84 -4 -160 -9 -170 -10 -9 -2
-57 -7 -107 -10 -49 -4 -101 -9 -115 -11 -25 -3 -86 -11 -170 -21 -43 -5 -210
-29 -275 -40 -182 -30 -351 -64 -542 -110 -307 -73 -667 -184 -948 -294 -71
-28 -149 -58 -172 -67 -30 -12 -43 -24 -46 -42 -7 -36 -1 -681 7 -766 68 -710
234 -1309 535 -1930 221 -456 502 -884 831 -1265 118 -137 134 -154 330 -351
265 -266 580 -535 816 -699 148 -103 342 -231 435 -288 l116 -70 108 64 c618
372 1214 884 1666 1434 531 646 898 1346 1115 2125 62 222 131 568 149 750 4
33 8 67 10 75 2 8 7 56 11 105 3 50 8 108 10 130 7 62 12 534 7 588 -5 48 -6
48 -62 73 -434 194 -1079 400 -1516 484 -33 6 -71 14 -85 16 -165 34 -505 84
-665 99 -33 3 -78 8 -100 10 -22 2 -83 7 -135 10 -52 4 -106 9 -120 11 -29 6
-756 15 -761 10z"/>
</g>
</svg>
